<svg viewBox="0 0 506 393" fill="none" xmlns="http://www.w3.org/2000/svg">
    <path d="M294.027 12.8938C291.113 124.387 263.075 186.967 33.5746 202.173" stroke="#C3C3C3"
        stroke-width="5" stroke-linecap="round" />
    <path d="M300.732 12.3779L300.732 363.087" stroke="#C4C4C4" stroke-opacity="0.4"
        stroke-width="3" stroke-linecap="round" stroke-dasharray="10 10" />
    <path
        d="M2.4078 27.9091V9.90909H4.35099V11.9886H4.58962C4.73735 11.7614 4.94189 11.4716 5.20326 11.1193C5.4703 10.7614 5.85099 10.4432 6.3453 10.1648C6.8453 9.88068 7.52144 9.73864 8.37371 9.73864C9.47599 9.73864 10.4476 10.0142 11.2885 10.5653C12.1294 11.1165 12.7856 11.8977 13.2572 12.9091C13.7288 13.9205 13.9646 15.1136 13.9646 16.4886C13.9646 17.875 13.7288 19.0767 13.2572 20.0938C12.7856 21.1051 12.1322 21.8892 11.297 22.446C10.4618 22.9972 9.49871 23.2727 8.4078 23.2727C7.5669 23.2727 6.8936 23.1335 6.38792 22.8551C5.88224 22.571 5.49303 22.25 5.2203 21.892C4.94758 21.5284 4.73735 21.2273 4.58962 20.9886H4.41917V27.9091H2.4078ZM4.38508 16.4545C4.38508 17.4432 4.52996 18.3153 4.81974 19.071C5.10951 19.821 5.5328 20.4091 6.08962 20.8352C6.64644 21.2557 7.32826 21.4659 8.13508 21.4659C8.97599 21.4659 9.67769 21.2443 10.2402 20.8011C10.8084 20.3523 11.2345 19.75 11.5186 18.9943C11.8084 18.233 11.9533 17.3864 11.9533 16.4545C11.9533 15.5341 11.8112 14.7045 11.5271 13.9659C11.2487 13.2216 10.8254 12.6335 10.2572 12.2017C9.69474 11.7642 8.98735 11.5455 8.13508 11.5455C7.31689 11.5455 6.62939 11.7528 6.07258 12.1676C5.51576 12.5767 5.0953 13.1506 4.81121 13.8892C4.52712 14.6222 4.38508 15.4773 4.38508 16.4545Z"
        fill="white" />
    <path
        d="M503.704 364.581L501.897 365.093C501.784 364.791 501.616 364.499 501.395 364.215C501.179 363.925 500.883 363.686 500.508 363.499C500.133 363.311 499.653 363.218 499.068 363.218C498.267 363.218 497.599 363.402 497.065 363.771C496.537 364.135 496.272 364.598 496.272 365.161C496.272 365.661 496.454 366.056 496.818 366.345C497.181 366.635 497.75 366.877 498.522 367.07L500.466 367.547C501.636 367.831 502.508 368.266 503.082 368.851C503.656 369.431 503.943 370.178 503.943 371.093C503.943 371.843 503.727 372.513 503.295 373.104C502.869 373.695 502.272 374.161 501.505 374.502C500.738 374.843 499.846 375.013 498.829 375.013C497.494 375.013 496.389 374.723 495.514 374.144C494.639 373.564 494.085 372.718 493.852 371.604L495.761 371.127C495.943 371.831 496.287 372.36 496.792 372.712C497.304 373.064 497.971 373.24 498.795 373.24C499.733 373.24 500.477 373.041 501.028 372.644C501.585 372.24 501.863 371.757 501.863 371.195C501.863 370.74 501.704 370.36 501.386 370.053C501.068 369.74 500.579 369.507 499.92 369.354L497.738 368.843C496.539 368.558 495.659 368.118 495.096 367.521C494.539 366.919 494.261 366.166 494.261 365.263C494.261 364.524 494.468 363.871 494.883 363.303C495.304 362.735 495.875 362.289 496.596 361.965C497.324 361.641 498.147 361.479 499.068 361.479C500.363 361.479 501.38 361.763 502.119 362.331C502.863 362.899 503.392 363.649 503.704 364.581Z"
        fill="white" />
    <path
        d="M305.657 375.927L303.85 376.439C303.736 376.138 303.569 375.845 303.347 375.561C303.131 375.271 302.836 375.032 302.461 374.845C302.086 374.657 301.606 374.564 301.02 374.564C300.219 374.564 299.552 374.748 299.018 375.118C298.489 375.481 298.225 375.944 298.225 376.507C298.225 377.007 298.407 377.402 298.77 377.692C299.134 377.981 299.702 378.223 300.475 378.416L302.418 378.893C303.589 379.177 304.461 379.612 305.035 380.197C305.609 380.777 305.895 381.524 305.895 382.439C305.895 383.189 305.68 383.859 305.248 384.45C304.822 385.041 304.225 385.507 303.458 385.848C302.691 386.189 301.799 386.359 300.782 386.359C299.447 386.359 298.342 386.069 297.467 385.49C296.592 384.91 296.038 384.064 295.805 382.95L297.714 382.473C297.895 383.177 298.239 383.706 298.745 384.058C299.256 384.41 299.924 384.586 300.748 384.586C301.685 384.586 302.43 384.388 302.981 383.99C303.538 383.586 303.816 383.103 303.816 382.541C303.816 382.086 303.657 381.706 303.339 381.399C303.02 381.086 302.532 380.853 301.873 380.7L299.691 380.189C298.492 379.905 297.611 379.464 297.049 378.868C296.492 378.265 296.214 377.513 296.214 376.609C296.214 375.871 296.421 375.217 296.836 374.649C297.256 374.081 297.827 373.635 298.549 373.311C299.276 372.987 300.1 372.825 301.02 372.825C302.316 372.825 303.333 373.109 304.072 373.677C304.816 374.246 305.344 374.996 305.657 375.927ZM312.366 389.291C311.003 389.291 309.935 388.808 309.162 387.842C308.389 386.882 308.003 385.558 308.003 383.871C308.003 382.183 308.389 380.865 309.162 379.916C309.935 378.961 311.003 378.484 312.366 378.484C313.713 378.484 314.775 378.956 315.554 379.899C316.338 380.842 316.73 382.166 316.73 383.871C316.73 385.575 316.338 386.905 315.554 387.859C314.775 388.814 313.713 389.291 312.366 389.291ZM312.366 387.757C313.116 387.757 313.719 387.427 314.173 386.768C314.628 386.115 314.855 385.149 314.855 383.871C314.855 382.592 314.628 381.626 314.173 380.973C313.719 380.314 313.116 379.984 312.366 379.984C311.616 379.984 311.014 380.314 310.56 380.973C310.105 381.626 309.878 382.592 309.878 383.871C309.878 385.132 310.099 386.095 310.543 386.76C310.991 387.424 311.599 387.757 312.366 387.757Z"
        fill="#C3C3C3" />
    <path d="M280.102 12.3779L280.102 363.087" stroke="#295eff" stroke-opacity="0.4"
        stroke-width="3" stroke-linecap="round" stroke-dasharray="10 10" />
    <path
        d="M275.744 375.927L273.937 376.439C273.823 376.138 273.655 375.845 273.434 375.561C273.218 375.271 272.922 375.032 272.547 374.845C272.172 374.657 271.692 374.564 271.107 374.564C270.306 374.564 269.638 374.748 269.104 375.118C268.576 375.481 268.312 375.944 268.312 376.507C268.312 377.007 268.494 377.402 268.857 377.692C269.221 377.981 269.789 378.223 270.562 378.416L272.505 378.893C273.675 379.177 274.547 379.612 275.121 380.197C275.695 380.777 275.982 381.524 275.982 382.439C275.982 383.189 275.766 383.859 275.334 384.45C274.908 385.041 274.312 385.507 273.545 385.848C272.778 386.189 271.886 386.359 270.869 386.359C269.533 386.359 268.428 386.069 267.553 385.49C266.678 384.91 266.124 384.064 265.891 382.95L267.8 382.473C267.982 383.177 268.326 383.706 268.832 384.058C269.343 384.41 270.011 384.586 270.834 384.586C271.772 384.586 272.516 384.388 273.067 383.99C273.624 383.586 273.903 383.103 273.903 382.541C273.903 382.086 273.744 381.706 273.425 381.399C273.107 381.086 272.619 380.853 271.959 380.7L269.778 380.189C268.579 379.905 267.698 379.464 267.136 378.868C266.579 378.265 266.3 377.513 266.3 376.609C266.3 375.871 266.508 375.217 266.922 374.649C267.343 374.081 267.914 373.635 268.636 373.311C269.363 372.987 270.187 372.825 271.107 372.825C272.403 372.825 273.42 373.109 274.158 373.677C274.903 374.246 275.431 374.996 275.744 375.927ZM282.453 389.291C281.089 389.291 280.021 388.808 279.248 387.842C278.476 386.882 278.089 385.558 278.089 383.871C278.089 382.183 278.476 380.865 279.248 379.916C280.021 378.961 281.089 378.484 282.453 378.484C283.8 378.484 284.862 378.956 285.641 379.899C286.425 380.842 286.817 382.166 286.817 383.871C286.817 385.575 286.425 386.905 285.641 387.859C284.862 388.814 283.8 389.291 282.453 389.291ZM282.453 387.757C283.203 387.757 283.805 387.427 284.26 386.768C284.714 386.115 284.942 385.149 284.942 383.871C284.942 382.592 284.714 381.626 284.26 380.973C283.805 380.314 283.203 379.984 282.453 379.984C281.703 379.984 281.101 380.314 280.646 380.973C280.192 381.626 279.964 382.592 279.964 383.871C279.964 385.132 280.186 386.095 280.629 386.76C281.078 387.424 281.686 387.757 282.453 387.757ZM291.353 368.632V370.166C291.353 370.632 291.268 371.129 291.097 371.657C290.932 372.18 290.688 372.689 290.364 373.183C290.046 373.672 289.66 374.098 289.205 374.461L288.114 373.575C288.472 373.064 288.782 372.532 289.043 371.981C289.31 371.424 289.444 370.831 289.444 370.2V368.632H291.353Z"
        fill="#295eff" />
    <rect x="434.827" y="14.4409" width="20.6299" height="20.6299" rx="6" fill="#D9D9D9" />
    <path
        d="M470.544 30.6545C469.756 30.6545 469.065 30.467 468.47 30.092C467.879 29.717 467.417 29.1924 467.084 28.5181C466.754 27.8439 466.59 27.056 466.59 26.1545C466.59 25.2454 466.754 24.4518 467.084 23.7738C467.417 23.0958 467.879 22.5692 468.47 22.1942C469.065 21.8192 469.756 21.6317 470.544 21.6317C471.332 21.6317 472.021 21.8192 472.612 22.1942C473.207 22.5692 473.669 23.0958 473.999 23.7738C474.332 24.4518 474.499 25.2454 474.499 26.1545C474.499 27.056 474.332 27.8439 473.999 28.5181C473.669 29.1924 473.207 29.717 472.612 30.092C472.021 30.467 471.332 30.6545 470.544 30.6545ZM470.544 29.4499C471.143 29.4499 471.635 29.2965 472.021 28.9897C472.408 28.6829 472.694 28.2795 472.879 27.7795C473.065 27.2795 473.158 26.7378 473.158 26.1545C473.158 25.5711 473.065 25.0276 472.879 24.5238C472.694 24.02 472.408 23.6128 472.021 23.3022C471.635 22.9916 471.143 22.8363 470.544 22.8363C469.946 22.8363 469.453 22.9916 469.067 23.3022C468.681 23.6128 468.395 24.02 468.209 24.5238C468.023 25.0276 467.931 25.5711 467.931 26.1545C467.931 26.7378 468.023 27.2795 468.209 27.7795C468.395 28.2795 468.681 28.6829 469.067 28.9897C469.453 29.2965 469.946 29.4499 470.544 29.4499ZM477.887 18.8363V30.4727H476.546V18.8363H477.887ZM483.638 30.6545C482.911 30.6545 482.269 30.4708 481.712 30.1033C481.155 29.7321 480.719 29.2094 480.405 28.5352C480.091 27.8571 479.933 27.056 479.933 26.1317C479.933 25.2151 480.091 24.4196 480.405 23.7454C480.719 23.0711 481.157 22.5503 481.718 22.1829C482.278 21.8155 482.926 21.6317 483.661 21.6317C484.229 21.6317 484.678 21.7264 485.007 21.9158C485.341 22.1014 485.594 22.3136 485.769 22.5522C485.947 22.787 486.085 22.9802 486.183 23.1317H486.297V18.8363H487.638V30.4727H486.343V29.1317H486.183C486.085 29.2908 485.945 29.4916 485.763 29.734C485.581 29.9727 485.322 30.1867 484.985 30.3761C484.647 30.5617 484.199 30.6545 483.638 30.6545ZM483.82 29.4499C484.358 29.4499 484.812 29.3098 485.183 29.0295C485.555 28.7454 485.837 28.3533 486.03 27.8533C486.223 27.3496 486.32 26.7681 486.32 26.109C486.32 25.4575 486.225 24.8874 486.036 24.3988C485.846 23.9064 485.566 23.5238 485.195 23.2511C484.824 22.9745 484.365 22.8363 483.82 22.8363C483.252 22.8363 482.778 22.9821 482.399 23.2738C482.024 23.5617 481.742 23.9537 481.553 24.4499C481.367 24.9424 481.274 25.4954 481.274 26.109C481.274 26.7302 481.369 27.2946 481.558 27.8022C481.752 28.306 482.036 28.7075 482.411 29.0067C482.789 29.3022 483.259 29.4499 483.82 29.4499Z"
        fill="#D9D9D9" />
    <rect x="434.827" y="45.3857" width="20.6299" height="20.6299" rx="6" fill="#295eff" />
    <path
        d="M468.34 56.1675V61.4175H466.999V52.6902H468.294V54.0538H468.408C468.612 53.6107 468.923 53.2546 469.34 52.9857C469.756 52.7129 470.294 52.5766 470.953 52.5766C471.544 52.5766 472.061 52.6978 472.504 52.9402C472.948 53.1788 473.292 53.5425 473.539 54.0311C473.785 54.516 473.908 55.1296 473.908 55.872V61.4175H472.567V55.9629C472.567 55.2773 472.389 54.7432 472.033 54.3607C471.677 53.9743 471.188 53.7811 470.567 53.7811C470.139 53.7811 469.756 53.8739 469.419 54.0595C469.086 54.2451 468.823 54.516 468.629 54.872C468.436 55.2281 468.34 55.6599 468.34 56.1675ZM480.017 61.5993C479.176 61.5993 478.451 61.4137 477.841 61.0425C477.235 60.6675 476.767 60.1448 476.438 59.4743C476.112 58.8001 475.949 58.016 475.949 57.122C475.949 56.2281 476.112 55.4402 476.438 54.7584C476.767 54.0728 477.226 53.5387 477.813 53.1561C478.404 52.7698 479.093 52.5766 479.881 52.5766C480.335 52.5766 480.784 52.6523 481.227 52.8038C481.671 52.9554 482.074 53.2016 482.438 53.5425C482.801 53.8796 483.091 54.3266 483.307 54.8834C483.523 55.4402 483.631 56.1258 483.631 56.9402V57.5084H476.904V56.3493H482.267C482.267 55.8569 482.169 55.4175 481.972 55.0311C481.779 54.6448 481.502 54.3398 481.142 54.1163C480.786 53.8929 480.366 53.7811 479.881 53.7811C479.347 53.7811 478.885 53.9137 478.494 54.1788C478.108 54.4402 477.811 54.7811 477.602 55.2016C477.394 55.622 477.29 56.0728 477.29 56.5538V57.3266C477.29 57.9857 477.404 58.5444 477.631 59.0027C477.862 59.4573 478.182 59.8038 478.591 60.0425C479 60.2773 479.476 60.3948 480.017 60.3948C480.369 60.3948 480.688 60.3455 480.972 60.247C481.26 60.1448 481.508 59.9932 481.716 59.7925C481.924 59.5879 482.085 59.3341 482.199 59.0311L483.494 59.3948C483.358 59.8341 483.129 60.2205 482.807 60.5538C482.485 60.8834 482.087 61.141 481.614 61.3266C481.14 61.5084 480.608 61.5993 480.017 61.5993ZM487.648 61.4175L484.989 52.6902H486.398L488.284 59.372H488.375L490.239 52.6902H491.671L493.512 59.3493H493.602L495.489 52.6902H496.898L494.239 61.4175H492.921L491.012 54.7129H490.875L488.966 61.4175H487.648Z"
        fill="#295eff" />
    <path d="M272.882 14.4409C277.42 64.2704 268.756 230.024 34.0909 234.15" stroke="#295eff"
        stroke-width="5" stroke-linecap="round" />
    <path d="M33.5747 12.3779L33.5747 349.677" stroke="white" stroke-width="5"
        stroke-linecap="round" />
    <path d="M482.276 352.771L33.5749 352.771" stroke="white" stroke-width="5"
        stroke-linecap="round" />
    <path d="M34.6246 9.28337L42.8398 23.7243" stroke="white" stroke-width="5"
        stroke-linecap="round" />
    <path d="M33.5563 9.28337L25.3411 23.7243" stroke="white" stroke-width="5"
        stroke-linecap="round" />
    <path d="M482.275 352.79L467.835 361.005" stroke="white" stroke-width="5" stroke-linecap="round" />
    <path d="M482.275 351.722L467.835 343.506" stroke="white" stroke-width="5"
        stroke-linecap="round" />
</svg>