<svg viewBox="0 0 480 396" fill="none" xmlns="http://www.w3.org/2000/svg">
    <path d="M22.5356 13.9998L30.5 27.9998" stroke="white" stroke-width="5" stroke-linecap="round" />
    <path d="M21.5 13.9998L13.5356 27.9998" stroke="white" stroke-width="5" stroke-linecap="round" />
    <path d="M275.502 13.5001C277.099 190.44 237.731 253.351 25.0026 342" stroke="#C3C3C3"
        stroke-width="5" stroke-linecap="round" />
    <path d="M281 13L281 353" stroke="#C4C4C4" stroke-opacity="0.4" stroke-width="3"
        stroke-linecap="round" stroke-dasharray="10 10" />
    <path
        d="M1.84091 23V9.90909H3.78409V11.8864H3.92045C4.15909 11.2386 4.59091 10.7131 5.21591 10.3097C5.84091 9.90625 6.54545 9.70454 7.32955 9.70454C7.47727 9.70454 7.66193 9.70739 7.88352 9.71307C8.10511 9.71875 8.27273 9.72727 8.38636 9.73864V11.7841C8.31818 11.767 8.16193 11.7415 7.91761 11.7074C7.67898 11.6676 7.42614 11.6477 7.15909 11.6477C6.52273 11.6477 5.95455 11.7812 5.45455 12.0483C4.96023 12.3097 4.56818 12.6733 4.27841 13.1392C3.99432 13.5994 3.85227 14.125 3.85227 14.7159V23H1.84091Z"
        fill="white" />
    <path
        d="M478.114 354.841L476.307 355.352C476.193 355.051 476.026 354.759 475.804 354.474C475.588 354.185 475.293 353.946 474.918 353.759C474.543 353.571 474.062 353.477 473.477 353.477C472.676 353.477 472.009 353.662 471.474 354.031C470.946 354.395 470.682 354.858 470.682 355.42C470.682 355.92 470.864 356.315 471.227 356.605C471.591 356.895 472.159 357.136 472.932 357.33L474.875 357.807C476.045 358.091 476.918 358.526 477.491 359.111C478.065 359.69 478.352 360.437 478.352 361.352C478.352 362.102 478.136 362.773 477.705 363.364C477.278 363.955 476.682 364.42 475.915 364.761C475.148 365.102 474.256 365.273 473.239 365.273C471.903 365.273 470.798 364.983 469.923 364.403C469.048 363.824 468.494 362.977 468.261 361.864L470.17 361.386C470.352 362.091 470.696 362.619 471.202 362.972C471.713 363.324 472.381 363.5 473.205 363.5C474.142 363.5 474.886 363.301 475.438 362.903C475.994 362.5 476.273 362.017 476.273 361.455C476.273 361 476.114 360.619 475.795 360.312C475.477 360 474.989 359.767 474.33 359.614L472.148 359.102C470.949 358.818 470.068 358.378 469.506 357.781C468.949 357.179 468.67 356.426 468.67 355.523C468.67 354.784 468.878 354.131 469.293 353.562C469.713 352.994 470.284 352.548 471.006 352.224C471.733 351.901 472.557 351.739 473.477 351.739C474.773 351.739 475.79 352.023 476.528 352.591C477.273 353.159 477.801 353.909 478.114 354.841Z"
        fill="white" />
    <path
        d="M286.114 365.841L284.307 366.352C284.193 366.051 284.026 365.759 283.804 365.474C283.588 365.185 283.293 364.946 282.918 364.759C282.543 364.571 282.062 364.477 281.477 364.477C280.676 364.477 280.009 364.662 279.474 365.031C278.946 365.395 278.682 365.858 278.682 366.42C278.682 366.92 278.864 367.315 279.227 367.605C279.591 367.895 280.159 368.136 280.932 368.33L282.875 368.807C284.045 369.091 284.918 369.526 285.491 370.111C286.065 370.69 286.352 371.437 286.352 372.352C286.352 373.102 286.136 373.773 285.705 374.364C285.278 374.955 284.682 375.42 283.915 375.761C283.148 376.102 282.256 376.273 281.239 376.273C279.903 376.273 278.798 375.983 277.923 375.403C277.048 374.824 276.494 373.977 276.261 372.864L278.17 372.386C278.352 373.091 278.696 373.619 279.202 373.972C279.713 374.324 280.381 374.5 281.205 374.5C282.142 374.5 282.886 374.301 283.438 373.903C283.994 373.5 284.273 373.017 284.273 372.455C284.273 372 284.114 371.619 283.795 371.312C283.477 371 282.989 370.767 282.33 370.614L280.148 370.102C278.949 369.818 278.068 369.378 277.506 368.781C276.949 368.179 276.67 367.426 276.67 366.523C276.67 365.784 276.878 365.131 277.293 364.562C277.713 363.994 278.284 363.548 279.006 363.224C279.733 362.901 280.557 362.739 281.477 362.739C282.773 362.739 283.79 363.023 284.528 363.591C285.273 364.159 285.801 364.909 286.114 365.841ZM292.823 379.205C291.46 379.205 290.391 378.722 289.619 377.756C288.846 376.795 288.46 375.472 288.46 373.784C288.46 372.097 288.846 370.778 289.619 369.83C290.391 368.875 291.46 368.398 292.823 368.398C294.17 368.398 295.232 368.869 296.011 369.812C296.795 370.756 297.187 372.08 297.187 373.784C297.187 375.489 296.795 376.818 296.011 377.773C295.232 378.727 294.17 379.205 292.823 379.205ZM292.823 377.67C293.573 377.67 294.175 377.341 294.63 376.682C295.085 376.028 295.312 375.062 295.312 373.784C295.312 372.506 295.085 371.54 294.63 370.886C294.175 370.227 293.573 369.898 292.823 369.898C292.073 369.898 291.471 370.227 291.016 370.886C290.562 371.54 290.335 372.506 290.335 373.784C290.335 375.045 290.556 376.009 290.999 376.673C291.448 377.338 292.056 377.67 292.823 377.67Z"
        fill="#C3C3C3" />
    <path d="M261 13L261 353" stroke="#295eff" stroke-opacity="0.4" stroke-width="3"
        stroke-linecap="round" stroke-dasharray="10 10" />
    <path
        d="M257.114 365.841L255.307 366.352C255.193 366.051 255.026 365.759 254.804 365.474C254.588 365.185 254.293 364.946 253.918 364.759C253.543 364.571 253.062 364.477 252.477 364.477C251.676 364.477 251.009 364.662 250.474 365.031C249.946 365.395 249.682 365.858 249.682 366.42C249.682 366.92 249.864 367.315 250.227 367.605C250.591 367.895 251.159 368.136 251.932 368.33L253.875 368.807C255.045 369.091 255.918 369.526 256.491 370.111C257.065 370.69 257.352 371.437 257.352 372.352C257.352 373.102 257.136 373.773 256.705 374.364C256.278 374.955 255.682 375.42 254.915 375.761C254.148 376.102 253.256 376.273 252.239 376.273C250.903 376.273 249.798 375.983 248.923 375.403C248.048 374.824 247.494 373.977 247.261 372.864L249.17 372.386C249.352 373.091 249.696 373.619 250.202 373.972C250.713 374.324 251.381 374.5 252.205 374.5C253.142 374.5 253.886 374.301 254.438 373.903C254.994 373.5 255.273 373.017 255.273 372.455C255.273 372 255.114 371.619 254.795 371.312C254.477 371 253.989 370.767 253.33 370.614L251.148 370.102C249.949 369.818 249.068 369.378 248.506 368.781C247.949 368.179 247.67 367.426 247.67 366.523C247.67 365.784 247.878 365.131 248.293 364.562C248.713 363.994 249.284 363.548 250.006 363.224C250.733 362.901 251.557 362.739 252.477 362.739C253.773 362.739 254.79 363.023 255.528 363.591C256.273 364.159 256.801 364.909 257.114 365.841ZM263.823 379.205C262.46 379.205 261.391 378.722 260.619 377.756C259.846 376.795 259.46 375.472 259.46 373.784C259.46 372.097 259.846 370.778 260.619 369.83C261.391 368.875 262.46 368.398 263.823 368.398C265.17 368.398 266.232 368.869 267.011 369.812C267.795 370.756 268.187 372.08 268.187 373.784C268.187 375.489 267.795 376.818 267.011 377.773C266.232 378.727 265.17 379.205 263.823 379.205ZM263.823 377.67C264.573 377.67 265.175 377.341 265.63 376.682C266.085 376.028 266.312 375.062 266.312 373.784C266.312 372.506 266.085 371.54 265.63 370.886C265.175 370.227 264.573 369.898 263.823 369.898C263.073 369.898 262.471 370.227 262.016 370.886C261.562 371.54 261.335 372.506 261.335 373.784C261.335 375.045 261.556 376.009 261.999 376.673C262.448 377.338 263.056 377.67 263.823 377.67ZM272.723 358.545V360.08C272.723 360.545 272.638 361.043 272.467 361.571C272.303 362.094 272.058 362.602 271.734 363.097C271.416 363.585 271.03 364.011 270.575 364.375L269.484 363.489C269.842 362.977 270.152 362.446 270.413 361.895C270.68 361.338 270.814 360.744 270.814 360.114V358.545H272.723Z"
        fill="#295eff" />
    <path d="M255.999 13.5002C256.882 188.547 245.6 289.676 24.9982 342" stroke="#295eff"
        stroke-width="5" stroke-linecap="round" />
    <rect x="411" y="15" width="20" height="20" rx="6" fill="#D9D9D9" />
    <path
        d="M445.773 31.1818C444.985 31.1818 444.294 30.9943 443.699 30.6193C443.108 30.2443 442.646 29.7197 442.312 29.0455C441.983 28.3712 441.818 27.5833 441.818 26.6818C441.818 25.7727 441.983 24.9792 442.312 24.3011C442.646 23.6231 443.108 23.0966 443.699 22.7216C444.294 22.3466 444.985 22.1591 445.773 22.1591C446.561 22.1591 447.25 22.3466 447.841 22.7216C448.436 23.0966 448.898 23.6231 449.227 24.3011C449.561 24.9792 449.727 25.7727 449.727 26.6818C449.727 27.5833 449.561 28.3712 449.227 29.0455C448.898 29.7197 448.436 30.2443 447.841 30.6193C447.25 30.9943 446.561 31.1818 445.773 31.1818ZM445.773 29.9773C446.371 29.9773 446.864 29.8239 447.25 29.517C447.636 29.2102 447.922 28.8068 448.108 28.3068C448.294 27.8068 448.386 27.2652 448.386 26.6818C448.386 26.0985 448.294 25.5549 448.108 25.0511C447.922 24.5473 447.636 24.1402 447.25 23.8295C446.864 23.5189 446.371 23.3636 445.773 23.3636C445.174 23.3636 444.682 23.5189 444.295 23.8295C443.909 24.1402 443.623 24.5473 443.438 25.0511C443.252 25.5549 443.159 26.0985 443.159 26.6818C443.159 27.2652 443.252 27.8068 443.438 28.3068C443.623 28.8068 443.909 29.2102 444.295 29.517C444.682 29.8239 445.174 29.9773 445.773 29.9773ZM453.115 19.3636V31H451.774V19.3636H453.115ZM458.866 31.1818C458.139 31.1818 457.497 30.9981 456.94 30.6307C456.384 30.2595 455.948 29.7367 455.634 29.0625C455.319 28.3845 455.162 27.5833 455.162 26.6591C455.162 25.7424 455.319 24.947 455.634 24.2727C455.948 23.5985 456.385 23.0777 456.946 22.7102C457.507 22.3428 458.154 22.1591 458.889 22.1591C459.457 22.1591 459.906 22.2538 460.236 22.4432C460.569 22.6288 460.823 22.8409 460.997 23.0795C461.175 23.3144 461.313 23.5076 461.412 23.6591H461.526V19.3636H462.866V31H461.571V29.6591H461.412C461.313 29.8182 461.173 30.0189 460.991 30.2614C460.81 30.5 460.55 30.714 460.213 30.9034C459.876 31.089 459.427 31.1818 458.866 31.1818ZM459.048 29.9773C459.586 29.9773 460.041 29.8371 460.412 29.5568C460.783 29.2727 461.065 28.8807 461.259 28.3807C461.452 27.8769 461.548 27.2955 461.548 26.6364C461.548 25.9848 461.454 25.4148 461.264 24.9261C461.075 24.4337 460.795 24.0511 460.423 23.7784C460.052 23.5019 459.594 23.3636 459.048 23.3636C458.48 23.3636 458.007 23.5095 457.628 23.8011C457.253 24.089 456.971 24.4811 456.781 24.9773C456.596 25.4697 456.503 26.0227 456.503 26.6364C456.503 27.2576 456.598 27.822 456.787 28.3295C456.98 28.8333 457.264 29.2348 457.639 29.5341C458.018 29.8295 458.488 29.9773 459.048 29.9773Z"
        fill="#D9D9D9" />
    <rect x="411" y="45" width="20" height="20" rx="6" fill="#295eff" />
    <path
        d="M443.568 55.75V61H442.227V52.2727H443.523V53.6364H443.636C443.841 53.1932 444.152 52.8371 444.568 52.5682C444.985 52.2955 445.523 52.1591 446.182 52.1591C446.773 52.1591 447.29 52.2803 447.733 52.5227C448.176 52.7614 448.521 53.125 448.767 53.6136C449.013 54.0985 449.136 54.7121 449.136 55.4545V61H447.795V55.5455C447.795 54.8598 447.617 54.3258 447.261 53.9432C446.905 53.5568 446.417 53.3636 445.795 53.3636C445.367 53.3636 444.985 53.4564 444.648 53.642C444.314 53.8277 444.051 54.0985 443.858 54.4545C443.665 54.8106 443.568 55.2424 443.568 55.75ZM455.246 61.1818C454.405 61.1818 453.679 60.9962 453.07 60.625C452.464 60.25 451.996 59.7273 451.666 59.0568C451.34 58.3826 451.178 57.5985 451.178 56.7045C451.178 55.8106 451.34 55.0227 451.666 54.3409C451.996 53.6553 452.454 53.1212 453.041 52.7386C453.632 52.3523 454.321 52.1591 455.109 52.1591C455.564 52.1591 456.013 52.2348 456.456 52.3864C456.899 52.5379 457.303 52.7841 457.666 53.125C458.03 53.4621 458.32 53.9091 458.536 54.4659C458.751 55.0227 458.859 55.7083 458.859 56.5227V57.0909H452.132V55.9318H457.496C457.496 55.4394 457.397 55 457.2 54.6136C457.007 54.2273 456.731 53.9223 456.371 53.6989C456.015 53.4754 455.594 53.3636 455.109 53.3636C454.575 53.3636 454.113 53.4962 453.723 53.7614C453.337 54.0227 453.039 54.3636 452.831 54.7841C452.623 55.2045 452.518 55.6553 452.518 56.1364V56.9091C452.518 57.5682 452.632 58.1269 452.859 58.5852C453.09 59.0398 453.411 59.3864 453.82 59.625C454.229 59.8598 454.704 59.9773 455.246 59.9773C455.598 59.9773 455.916 59.928 456.2 59.8295C456.488 59.7273 456.736 59.5758 456.945 59.375C457.153 59.1705 457.314 58.9167 457.428 58.6136L458.723 58.9773C458.587 59.4167 458.357 59.803 458.036 60.1364C457.714 60.4659 457.316 60.7235 456.842 60.9091C456.369 61.0909 455.837 61.1818 455.246 61.1818ZM462.876 61L460.217 52.2727H461.626L463.513 58.9545H463.604L465.467 52.2727H466.899L468.74 58.9318H468.831L470.717 52.2727H472.126L469.467 61H468.149L466.24 54.2955H466.104L464.195 61H462.876Z"
        fill="#295eff" />
    <path d="M22 15L22 342" stroke="white" stroke-width="5" stroke-linecap="round" />
    <path d="M457 345L22 345" stroke="white" stroke-width="5" stroke-linecap="round" />
    <path d="M457 346.018L443 353.982" stroke="white" stroke-width="5" stroke-linecap="round" />
    <path d="M457 344.982L443 337.018" stroke="white" stroke-width="5" stroke-linecap="round" />
</svg>