<svg viewBox="0 0 506 394" fill="none" xmlns="http://www.w3.org/2000/svg">
    <path d="M294.027 12.896C291.113 124.389 259 202.176 33.5746 202.176" stroke="#C3C3C3"
        stroke-width="5" stroke-linecap="round" />
    <path d="M300.732 12.3801L300.732 363.089" stroke="#C4C4C4" stroke-opacity="0.4"
        stroke-width="3" stroke-linecap="round" stroke-dasharray="10 10" />
    <path
        d="M2.4078 27.9113V9.91129H4.35099V11.9908H4.58962C4.73735 11.7636 4.94189 11.4738 5.20326 11.1215C5.4703 10.7636 5.85099 10.4454 6.3453 10.167C6.8453 9.88288 7.52144 9.74083 8.37371 9.74083C9.47599 9.74083 10.4476 10.0164 11.2885 10.5675C12.1294 11.1187 12.7856 11.8999 13.2572 12.9113C13.7288 13.9227 13.9646 15.1158 13.9646 16.4908C13.9646 17.8772 13.7288 19.0789 13.2572 20.0959C12.7856 21.1073 12.1322 21.8914 11.297 22.4482C10.4618 22.9994 9.49871 23.2749 8.4078 23.2749C7.5669 23.2749 6.8936 23.1357 6.38792 22.8573C5.88224 22.5732 5.49303 22.2522 5.2203 21.8942C4.94758 21.5306 4.73735 21.2295 4.58962 20.9908H4.41917V27.9113H2.4078ZM4.38508 16.4567C4.38508 17.4454 4.52996 18.3175 4.81974 19.0732C5.10951 19.8232 5.5328 20.4113 6.08962 20.8374C6.64644 21.2579 7.32826 21.4681 8.13508 21.4681C8.97599 21.4681 9.67769 21.2465 10.2402 20.8033C10.8084 20.3545 11.2345 19.7522 11.5186 18.9965C11.8084 18.2352 11.9533 17.3886 11.9533 16.4567C11.9533 15.5363 11.8112 14.7067 11.5271 13.9681C11.2487 13.2238 10.8254 12.6357 10.2572 12.2039C9.69474 11.7664 8.98735 11.5477 8.13508 11.5477C7.31689 11.5477 6.62939 11.755 6.07258 12.1698C5.51576 12.5789 5.0953 13.1528 4.81121 13.8914C4.52712 14.6244 4.38508 15.4795 4.38508 16.4567Z"
        fill="white" />
    <path
        d="M503.704 364.584L501.897 365.095C501.784 364.794 501.616 364.501 501.395 364.217C501.179 363.927 500.883 363.689 500.508 363.501C500.133 363.314 499.653 363.22 499.068 363.22C498.267 363.22 497.599 363.405 497.065 363.774C496.537 364.138 496.272 364.601 496.272 365.163C496.272 365.663 496.454 366.058 496.818 366.348C497.181 366.638 497.75 366.879 498.522 367.072L500.466 367.549C501.636 367.834 502.508 368.268 503.082 368.853C503.656 369.433 503.943 370.18 503.943 371.095C503.943 371.845 503.727 372.515 503.295 373.106C502.869 373.697 502.272 374.163 501.505 374.504C500.738 374.845 499.846 375.015 498.829 375.015C497.494 375.015 496.389 374.726 495.514 374.146C494.639 373.567 494.085 372.72 493.852 371.606L495.761 371.129C495.943 371.834 496.287 372.362 496.792 372.714C497.304 373.067 497.971 373.243 498.795 373.243C499.733 373.243 500.477 373.044 501.028 372.646C501.585 372.243 501.863 371.76 501.863 371.197C501.863 370.743 501.704 370.362 501.386 370.055C501.068 369.743 500.579 369.51 499.92 369.356L497.738 368.845C496.539 368.561 495.659 368.121 495.096 367.524C494.539 366.922 494.261 366.169 494.261 365.265C494.261 364.527 494.468 363.873 494.883 363.305C495.304 362.737 495.875 362.291 496.596 361.967C497.324 361.643 498.147 361.481 499.068 361.481C500.363 361.481 501.38 361.765 502.119 362.334C502.863 362.902 503.392 363.652 503.704 364.584Z"
        fill="white" />
    <path
        d="M305.657 375.93L303.85 376.442C303.736 376.14 303.569 375.848 303.347 375.564C303.131 375.274 302.836 375.035 302.461 374.848C302.086 374.66 301.606 374.567 301.02 374.567C300.219 374.567 299.552 374.751 299.018 375.121C298.489 375.484 298.225 375.947 298.225 376.51C298.225 377.01 298.407 377.405 298.77 377.694C299.134 377.984 299.702 378.226 300.475 378.419L302.418 378.896C303.589 379.18 304.461 379.615 305.035 380.2C305.609 380.78 305.895 381.527 305.895 382.442C305.895 383.192 305.68 383.862 305.248 384.453C304.822 385.044 304.225 385.51 303.458 385.851C302.691 386.192 301.799 386.362 300.782 386.362C299.447 386.362 298.342 386.072 297.467 385.493C296.592 384.913 296.038 384.067 295.805 382.953L297.714 382.476C297.895 383.18 298.239 383.709 298.745 384.061C299.256 384.413 299.924 384.589 300.748 384.589C301.685 384.589 302.43 384.39 302.981 383.993C303.538 383.589 303.816 383.106 303.816 382.544C303.816 382.089 303.657 381.709 303.339 381.402C303.02 381.089 302.532 380.856 301.873 380.703L299.691 380.192C298.492 379.908 297.611 379.467 297.049 378.871C296.492 378.268 296.214 377.515 296.214 376.612C296.214 375.873 296.421 375.22 296.836 374.652C297.256 374.084 297.827 373.638 298.549 373.314C299.276 372.99 300.1 372.828 301.02 372.828C302.316 372.828 303.333 373.112 304.072 373.68C304.816 374.248 305.344 374.998 305.657 375.93ZM312.366 389.294C311.003 389.294 309.935 388.811 309.162 387.845C308.389 386.885 308.003 385.561 308.003 383.873C308.003 382.186 308.389 380.868 309.162 379.919C309.935 378.964 311.003 378.487 312.366 378.487C313.713 378.487 314.775 378.959 315.554 379.902C316.338 380.845 316.73 382.169 316.73 383.873C316.73 385.578 316.338 386.908 315.554 387.862C314.775 388.817 313.713 389.294 312.366 389.294ZM312.366 387.76C313.116 387.76 313.719 387.43 314.173 386.771C314.628 386.118 314.855 385.152 314.855 383.873C314.855 382.595 314.628 381.629 314.173 380.976C313.719 380.317 313.116 379.987 312.366 379.987C311.616 379.987 311.014 380.317 310.56 380.976C310.105 381.629 309.878 382.595 309.878 383.873C309.878 385.135 310.099 386.098 310.543 386.763C310.991 387.427 311.599 387.76 312.366 387.76Z"
        fill="#C3C3C3" />
    <path d="M280.102 12.3801L280.102 363.089" stroke="#295EFF" stroke-opacity="0.4"
        stroke-width="3" stroke-linecap="round" stroke-dasharray="10 10" />
    <path
        d="M275.744 375.93L273.937 376.442C273.823 376.14 273.655 375.848 273.434 375.564C273.218 375.274 272.922 375.035 272.547 374.848C272.172 374.66 271.692 374.567 271.107 374.567C270.306 374.567 269.638 374.751 269.104 375.121C268.576 375.484 268.312 375.947 268.312 376.51C268.312 377.01 268.494 377.405 268.857 377.694C269.221 377.984 269.789 378.226 270.562 378.419L272.505 378.896C273.675 379.18 274.547 379.615 275.121 380.2C275.695 380.78 275.982 381.527 275.982 382.442C275.982 383.192 275.766 383.862 275.334 384.453C274.908 385.044 274.312 385.51 273.545 385.851C272.778 386.192 271.886 386.362 270.869 386.362C269.533 386.362 268.428 386.072 267.553 385.493C266.678 384.913 266.124 384.067 265.891 382.953L267.8 382.476C267.982 383.18 268.326 383.709 268.832 384.061C269.343 384.413 270.011 384.589 270.834 384.589C271.772 384.589 272.516 384.39 273.067 383.993C273.624 383.589 273.903 383.106 273.903 382.544C273.903 382.089 273.744 381.709 273.425 381.402C273.107 381.089 272.619 380.856 271.959 380.703L269.778 380.192C268.579 379.908 267.698 379.467 267.136 378.871C266.579 378.268 266.3 377.515 266.3 376.612C266.3 375.873 266.508 375.22 266.922 374.652C267.343 374.084 267.914 373.638 268.636 373.314C269.363 372.99 270.187 372.828 271.107 372.828C272.403 372.828 273.42 373.112 274.158 373.68C274.903 374.248 275.431 374.998 275.744 375.93ZM282.453 389.294C281.089 389.294 280.021 388.811 279.248 387.845C278.476 386.885 278.089 385.561 278.089 383.873C278.089 382.186 278.476 380.868 279.248 379.919C280.021 378.964 281.089 378.487 282.453 378.487C283.8 378.487 284.862 378.959 285.641 379.902C286.425 380.845 286.817 382.169 286.817 383.873C286.817 385.578 286.425 386.908 285.641 387.862C284.862 388.817 283.8 389.294 282.453 389.294ZM282.453 387.76C283.203 387.76 283.805 387.43 284.26 386.771C284.714 386.118 284.942 385.152 284.942 383.873C284.942 382.595 284.714 381.629 284.26 380.976C283.805 380.317 283.203 379.987 282.453 379.987C281.703 379.987 281.101 380.317 280.646 380.976C280.192 381.629 279.964 382.595 279.964 383.873C279.964 385.135 280.186 386.098 280.629 386.763C281.078 387.427 281.686 387.76 282.453 387.76ZM291.353 368.635V370.169C291.353 370.635 291.268 371.132 291.097 371.66C290.932 372.183 290.688 372.692 290.364 373.186C290.046 373.675 289.66 374.101 289.205 374.464L288.114 373.578C288.472 373.067 288.782 372.535 289.043 371.984C289.31 371.427 289.444 370.834 289.444 370.203V368.635H291.353Z"
        fill="#295EFF" />
    <rect x="434.827" y="14.4434" width="20.6299" height="20.6299" rx="6" fill="#D9D9D9" />
    <path
        d="M470.544 30.6569C469.756 30.6569 469.065 30.4694 468.47 30.0944C467.879 29.7194 467.417 29.1948 467.084 28.5206C466.754 27.8463 466.59 27.0584 466.59 26.1569C466.59 25.2478 466.754 24.4543 467.084 23.7762C467.417 23.0982 467.879 22.5717 468.47 22.1967C469.065 21.8217 469.756 21.6342 470.544 21.6342C471.332 21.6342 472.021 21.8217 472.612 22.1967C473.207 22.5717 473.669 23.0982 473.999 23.7762C474.332 24.4543 474.499 25.2478 474.499 26.1569C474.499 27.0584 474.332 27.8463 473.999 28.5206C473.669 29.1948 473.207 29.7194 472.612 30.0944C472.021 30.4694 471.332 30.6569 470.544 30.6569ZM470.544 29.4524C471.143 29.4524 471.635 29.299 472.021 28.9921C472.408 28.6853 472.694 28.2819 472.879 27.7819C473.065 27.2819 473.158 26.7402 473.158 26.1569C473.158 25.5736 473.065 25.03 472.879 24.5262C472.694 24.0224 472.408 23.6152 472.021 23.3046C471.635 22.994 471.143 22.8387 470.544 22.8387C469.946 22.8387 469.453 22.994 469.067 23.3046C468.681 23.6152 468.395 24.0224 468.209 24.5262C468.023 25.03 467.931 25.5736 467.931 26.1569C467.931 26.7402 468.023 27.2819 468.209 27.7819C468.395 28.2819 468.681 28.6853 469.067 28.9921C469.453 29.299 469.946 29.4524 470.544 29.4524ZM477.887 18.8387V30.4751H476.546V18.8387H477.887ZM483.638 30.6569C482.911 30.6569 482.269 30.4732 481.712 30.1058C481.155 29.7346 480.719 29.2118 480.405 28.5376C480.091 27.8596 479.933 27.0584 479.933 26.1342C479.933 25.2175 480.091 24.4221 480.405 23.7478C480.719 23.0736 481.157 22.5527 481.718 22.1853C482.278 21.8179 482.926 21.6342 483.661 21.6342C484.229 21.6342 484.678 21.7289 485.007 21.9183C485.341 22.1039 485.594 22.316 485.769 22.5546C485.947 22.7895 486.085 22.9827 486.183 23.1342H486.297V18.8387H487.638V30.4751H486.343V29.1342H486.183C486.085 29.2933 485.945 29.494 485.763 29.7365C485.581 29.9751 485.322 30.1891 484.985 30.3785C484.647 30.5641 484.199 30.6569 483.638 30.6569ZM483.82 29.4524C484.358 29.4524 484.812 29.3122 485.183 29.0319C485.555 28.7478 485.837 28.3558 486.03 27.8558C486.223 27.352 486.32 26.7706 486.32 26.1115C486.32 25.4599 486.225 24.8899 486.036 24.4012C485.846 23.9088 485.566 23.5262 485.195 23.2535C484.824 22.977 484.365 22.8387 483.82 22.8387C483.252 22.8387 482.778 22.9846 482.399 23.2762C482.024 23.5641 481.742 23.9562 481.553 24.4524C481.367 24.9448 481.274 25.4978 481.274 26.1115C481.274 26.7327 481.369 27.2971 481.558 27.8046C481.752 28.3084 482.036 28.7099 482.411 29.0092C482.789 29.3046 483.259 29.4524 483.82 29.4524Z"
        fill="#D9D9D9" />
    <rect x="434.827" y="45.3882" width="20.6299" height="20.6299" rx="6" fill="#295EFF" />
    <path
        d="M468.34 56.1699V61.4199H466.999V52.6926H468.294V54.0563H468.408C468.612 53.6131 468.923 53.257 469.34 52.9881C469.756 52.7154 470.294 52.579 470.953 52.579C471.544 52.579 472.061 52.7002 472.504 52.9426C472.948 53.1813 473.292 53.5449 473.539 54.0336C473.785 54.5184 473.908 55.132 473.908 55.8745V61.4199H472.567V55.9654C472.567 55.2798 472.389 54.7457 472.033 54.3631C471.677 53.9767 471.188 53.7836 470.567 53.7836C470.139 53.7836 469.756 53.8764 469.419 54.062C469.086 54.2476 468.823 54.5184 468.629 54.8745C468.436 55.2305 468.34 55.6623 468.34 56.1699ZM480.017 61.6017C479.176 61.6017 478.451 61.4161 477.841 61.0449C477.235 60.6699 476.767 60.1472 476.438 59.4767C476.112 58.8025 475.949 58.0184 475.949 57.1245C475.949 56.2305 476.112 55.4426 476.438 54.7608C476.767 54.0752 477.226 53.5411 477.813 53.1586C478.404 52.7722 479.093 52.579 479.881 52.579C480.335 52.579 480.784 52.6548 481.227 52.8063C481.671 52.9578 482.074 53.204 482.438 53.5449C482.801 53.882 483.091 54.329 483.307 54.8858C483.523 55.4426 483.631 56.1283 483.631 56.9426V57.5108H476.904V56.3517H482.267C482.267 55.8593 482.169 55.4199 481.972 55.0336C481.779 54.6472 481.502 54.3423 481.142 54.1188C480.786 53.8953 480.366 53.7836 479.881 53.7836C479.347 53.7836 478.885 53.9161 478.494 54.1813C478.108 54.4426 477.811 54.7836 477.602 55.204C477.394 55.6245 477.29 56.0752 477.29 56.5563V57.329C477.29 57.9881 477.404 58.5468 477.631 59.0051C477.862 59.4597 478.182 59.8063 478.591 60.0449C479 60.2798 479.476 60.3972 480.017 60.3972C480.369 60.3972 480.688 60.348 480.972 60.2495C481.26 60.1472 481.508 59.9957 481.716 59.7949C481.924 59.5904 482.085 59.3366 482.199 59.0336L483.494 59.3972C483.358 59.8366 483.129 60.223 482.807 60.5563C482.485 60.8858 482.087 61.1434 481.614 61.329C481.14 61.5108 480.608 61.6017 480.017 61.6017ZM487.648 61.4199L484.989 52.6926H486.398L488.284 59.3745H488.375L490.239 52.6926H491.671L493.512 59.3517H493.602L495.489 52.6926H496.898L494.239 61.4199H492.921L491.012 54.7154H490.875L488.966 61.4199H487.648Z"
        fill="#295EFF" />
    <path d="M274 14.0024C274.782 70.9048 274 242.5 34.0912 234.152" stroke="#295EFF"
        stroke-width="5" stroke-linecap="round" />
    <path d="M33.5747 12.3801L33.5747 349.679" stroke="white" stroke-width="5"
        stroke-linecap="round" />
    <path d="M33.5747 12.3801L33.5747 349.679" stroke="white" stroke-width="5"
        stroke-linecap="round" />
    <path d="M482.276 352.774L33.5749 352.774" stroke="white" stroke-width="5"
        stroke-linecap="round" />
    <path d="M34.6246 9.28557L42.8398 23.7265" stroke="white" stroke-width="5"
        stroke-linecap="round" />
    <path d="M33.5563 9.28557L25.3411 23.7265" stroke="white" stroke-width="5"
        stroke-linecap="round" />
    <path d="M482.275 352.793L467.835 361.008" stroke="white" stroke-width="5"
        stroke-linecap="round" />
    <path d="M482.275 351.725L467.835 343.509" stroke="white" stroke-width="5"
        stroke-linecap="round" />
    <circle cx="266" cy="92" r="5" fill="white" />
    <path
        d="M142.773 108.182C141.955 108.182 141.25 107.989 140.659 107.602C140.068 107.216 139.614 106.684 139.295 106.006C138.977 105.328 138.818 104.553 138.818 103.682C138.818 102.795 138.981 102.013 139.307 101.335C139.636 100.653 140.095 100.121 140.682 99.7386C141.273 99.3523 141.962 99.1591 142.75 99.1591C143.364 99.1591 143.917 99.2727 144.409 99.5C144.902 99.7273 145.305 100.045 145.619 100.455C145.934 100.864 146.129 101.341 146.205 101.886H144.864C144.761 101.489 144.534 101.136 144.182 100.83C143.833 100.519 143.364 100.364 142.773 100.364C142.25 100.364 141.792 100.5 141.398 100.773C141.008 101.042 140.703 101.422 140.483 101.915C140.267 102.403 140.159 102.977 140.159 103.636C140.159 104.311 140.265 104.898 140.477 105.398C140.693 105.898 140.996 106.286 141.386 106.562C141.78 106.839 142.242 106.977 142.773 106.977C143.121 106.977 143.438 106.917 143.722 106.795C144.006 106.674 144.246 106.5 144.443 106.273C144.64 106.045 144.78 105.773 144.864 105.455H146.205C146.129 105.97 145.941 106.434 145.642 106.847C145.347 107.256 144.955 107.581 144.466 107.824C143.981 108.062 143.417 108.182 142.773 108.182ZM153.665 104.432V99.2727H155.006V108H153.665V106.523H153.574C153.369 106.966 153.051 107.343 152.619 107.653C152.188 107.96 151.642 108.114 150.983 108.114C150.438 108.114 149.953 107.994 149.528 107.756C149.104 107.513 148.771 107.15 148.528 106.665C148.286 106.176 148.165 105.561 148.165 104.818V99.2727H149.506V104.727C149.506 105.364 149.684 105.871 150.04 106.25C150.4 106.629 150.858 106.818 151.415 106.818C151.748 106.818 152.087 106.733 152.432 106.562C152.78 106.392 153.072 106.131 153.307 105.778C153.545 105.426 153.665 104.977 153.665 104.432ZM157.462 108V99.2727H158.757V100.591H158.848C159.007 100.159 159.295 99.8087 159.712 99.5398C160.128 99.2708 160.598 99.1364 161.121 99.1364C161.219 99.1364 161.342 99.1383 161.49 99.142C161.638 99.1458 161.75 99.1515 161.825 99.1591V100.523C161.78 100.511 161.676 100.494 161.513 100.472C161.354 100.445 161.185 100.432 161.007 100.432C160.583 100.432 160.204 100.521 159.871 100.699C159.541 100.873 159.28 101.116 159.087 101.426C158.897 101.733 158.803 102.083 158.803 102.477V108H157.462ZM163.415 108V99.2727H164.71V100.591H164.801C164.96 100.159 165.248 99.8087 165.665 99.5398C166.081 99.2708 166.551 99.1364 167.074 99.1364C167.172 99.1364 167.295 99.1383 167.443 99.142C167.591 99.1458 167.703 99.1515 167.778 99.1591V100.523C167.733 100.511 167.629 100.494 167.466 100.472C167.307 100.445 167.138 100.432 166.96 100.432C166.536 100.432 166.157 100.521 165.824 100.699C165.494 100.873 165.233 101.116 165.04 101.426C164.85 101.733 164.756 102.083 164.756 102.477V108H163.415ZM172.761 108.182C171.92 108.182 171.195 107.996 170.585 107.625C169.979 107.25 169.511 106.727 169.182 106.057C168.856 105.383 168.693 104.598 168.693 103.705C168.693 102.811 168.856 102.023 169.182 101.341C169.511 100.655 169.97 100.121 170.557 99.7386C171.148 99.3523 171.837 99.1591 172.625 99.1591C173.08 99.1591 173.528 99.2348 173.972 99.3864C174.415 99.5379 174.818 99.7841 175.182 100.125C175.545 100.462 175.835 100.909 176.051 101.466C176.267 102.023 176.375 102.708 176.375 103.523V104.091H169.648V102.932H175.011C175.011 102.439 174.913 102 174.716 101.614C174.523 101.227 174.246 100.922 173.886 100.699C173.53 100.475 173.11 100.364 172.625 100.364C172.091 100.364 171.629 100.496 171.239 100.761C170.852 101.023 170.555 101.364 170.347 101.784C170.138 102.205 170.034 102.655 170.034 103.136V103.909C170.034 104.568 170.148 105.127 170.375 105.585C170.606 106.04 170.926 106.386 171.335 106.625C171.744 106.86 172.22 106.977 172.761 106.977C173.114 106.977 173.432 106.928 173.716 106.83C174.004 106.727 174.252 106.576 174.46 106.375C174.669 106.17 174.83 105.917 174.943 105.614L176.239 105.977C176.102 106.417 175.873 106.803 175.551 107.136C175.229 107.466 174.831 107.723 174.358 107.909C173.884 108.091 173.352 108.182 172.761 108.182ZM179.756 102.75V108H178.415V99.2727H179.71V100.636H179.824C180.028 100.193 180.339 99.8371 180.756 99.5682C181.172 99.2955 181.71 99.1591 182.369 99.1591C182.96 99.1591 183.477 99.2803 183.92 99.5227C184.364 99.7614 184.708 100.125 184.955 100.614C185.201 101.098 185.324 101.712 185.324 102.455V108H183.983V102.545C183.983 101.86 183.805 101.326 183.449 100.943C183.093 100.557 182.604 100.364 181.983 100.364C181.555 100.364 181.172 100.456 180.835 100.642C180.502 100.828 180.239 101.098 180.045 101.455C179.852 101.811 179.756 102.242 179.756 102.75ZM191.57 99.2727V100.409H187.047V99.2727H191.57ZM188.365 97.1818H189.706V105.5C189.706 105.879 189.761 106.163 189.871 106.352C189.984 106.538 190.128 106.663 190.303 106.727C190.481 106.788 190.668 106.818 190.865 106.818C191.013 106.818 191.134 106.811 191.229 106.795C191.323 106.777 191.399 106.761 191.456 106.75L191.729 107.955C191.638 107.989 191.511 108.023 191.348 108.057C191.185 108.095 190.979 108.114 190.729 108.114C190.35 108.114 189.979 108.032 189.615 107.869C189.255 107.706 188.956 107.458 188.717 107.125C188.482 106.792 188.365 106.371 188.365 105.864V97.1818ZM145.409 116.227L144.205 116.568C144.129 116.367 144.017 116.172 143.869 115.983C143.725 115.79 143.528 115.631 143.278 115.506C143.028 115.381 142.708 115.318 142.318 115.318C141.784 115.318 141.339 115.441 140.983 115.688C140.631 115.93 140.455 116.239 140.455 116.614C140.455 116.947 140.576 117.21 140.818 117.403C141.061 117.597 141.439 117.758 141.955 117.886L143.25 118.205C144.03 118.394 144.612 118.684 144.994 119.074C145.377 119.46 145.568 119.958 145.568 120.568C145.568 121.068 145.424 121.515 145.136 121.909C144.852 122.303 144.455 122.614 143.943 122.841C143.432 123.068 142.837 123.182 142.159 123.182C141.269 123.182 140.532 122.989 139.949 122.602C139.366 122.216 138.996 121.652 138.841 120.909L140.114 120.591C140.235 121.061 140.464 121.413 140.801 121.648C141.142 121.883 141.587 122 142.136 122C142.761 122 143.258 121.867 143.625 121.602C143.996 121.333 144.182 121.011 144.182 120.636C144.182 120.333 144.076 120.08 143.864 119.875C143.652 119.667 143.326 119.511 142.886 119.409L141.432 119.068C140.633 118.879 140.045 118.585 139.67 118.188C139.299 117.786 139.114 117.284 139.114 116.682C139.114 116.189 139.252 115.754 139.528 115.375C139.809 114.996 140.189 114.699 140.67 114.483C141.155 114.267 141.705 114.159 142.318 114.159C143.182 114.159 143.86 114.348 144.352 114.727C144.848 115.106 145.201 115.606 145.409 116.227ZM153.087 119.432V114.273H154.428V123H153.087V121.523H152.996C152.791 121.966 152.473 122.343 152.041 122.653C151.609 122.96 151.064 123.114 150.405 123.114C149.859 123.114 149.375 122.994 148.95 122.756C148.526 122.513 148.193 122.15 147.95 121.665C147.708 121.176 147.587 120.561 147.587 119.818V114.273H148.928V119.727C148.928 120.364 149.106 120.871 149.462 121.25C149.821 121.629 150.28 121.818 150.837 121.818C151.17 121.818 151.509 121.733 151.854 121.562C152.202 121.392 152.494 121.131 152.729 120.778C152.967 120.426 153.087 119.977 153.087 119.432ZM156.884 126.273V114.273H158.179V115.659H158.338C158.437 115.508 158.573 115.314 158.747 115.08C158.925 114.841 159.179 114.629 159.509 114.443C159.842 114.254 160.293 114.159 160.861 114.159C161.596 114.159 162.243 114.343 162.804 114.71C163.365 115.078 163.802 115.598 164.116 116.273C164.431 116.947 164.588 117.742 164.588 118.659C164.588 119.583 164.431 120.384 164.116 121.062C163.802 121.737 163.366 122.259 162.81 122.631C162.253 122.998 161.611 123.182 160.884 123.182C160.323 123.182 159.874 123.089 159.537 122.903C159.2 122.714 158.94 122.5 158.759 122.261C158.577 122.019 158.437 121.818 158.338 121.659H158.224V126.273H156.884ZM158.202 118.636C158.202 119.295 158.298 119.877 158.491 120.381C158.685 120.881 158.967 121.273 159.338 121.557C159.709 121.837 160.164 121.977 160.702 121.977C161.262 121.977 161.73 121.83 162.105 121.534C162.484 121.235 162.768 120.833 162.957 120.33C163.151 119.822 163.247 119.258 163.247 118.636C163.247 118.023 163.152 117.47 162.963 116.977C162.777 116.481 162.495 116.089 162.116 115.801C161.741 115.509 161.27 115.364 160.702 115.364C160.156 115.364 159.698 115.502 159.327 115.778C158.955 116.051 158.675 116.434 158.486 116.926C158.296 117.415 158.202 117.985 158.202 118.636ZM166.634 126.273V114.273H167.929V115.659H168.088C168.187 115.508 168.323 115.314 168.497 115.08C168.675 114.841 168.929 114.629 169.259 114.443C169.592 114.254 170.043 114.159 170.611 114.159C171.346 114.159 171.993 114.343 172.554 114.71C173.115 115.078 173.552 115.598 173.866 116.273C174.181 116.947 174.338 117.742 174.338 118.659C174.338 119.583 174.181 120.384 173.866 121.062C173.552 121.737 173.116 122.259 172.56 122.631C172.003 122.998 171.361 123.182 170.634 123.182C170.073 123.182 169.624 123.089 169.287 122.903C168.95 122.714 168.69 122.5 168.509 122.261C168.327 122.019 168.187 121.818 168.088 121.659H167.974V126.273H166.634ZM167.952 118.636C167.952 119.295 168.048 119.877 168.241 120.381C168.435 120.881 168.717 121.273 169.088 121.557C169.459 121.837 169.914 121.977 170.452 121.977C171.012 121.977 171.48 121.83 171.855 121.534C172.234 121.235 172.518 120.833 172.707 120.33C172.901 119.822 172.997 119.258 172.997 118.636C172.997 118.023 172.902 117.47 172.713 116.977C172.527 116.481 172.245 116.089 171.866 115.801C171.491 115.509 171.02 115.364 170.452 115.364C169.906 115.364 169.448 115.502 169.077 115.778C168.705 116.051 168.425 116.434 168.236 116.926C168.046 117.415 167.952 117.985 167.952 118.636ZM177.724 111.364V123H176.384V111.364H177.724ZM181.044 126.273C180.817 126.273 180.614 126.254 180.436 126.216C180.258 126.182 180.135 126.148 180.067 126.114L180.408 124.932C180.733 125.015 181.021 125.045 181.271 125.023C181.521 125 181.743 124.888 181.936 124.688C182.133 124.491 182.313 124.17 182.476 123.727L182.726 123.045L179.499 114.273H180.953L183.362 121.227H183.453L185.862 114.273H187.317L183.612 124.273C183.446 124.723 183.239 125.097 182.993 125.392C182.747 125.691 182.461 125.913 182.135 126.057C181.813 126.201 181.449 126.273 181.044 126.273Z"
        fill="white" />
    <path d="M201.5 115.5L261.5 93.4994" stroke="white" stroke-width="2" stroke-linecap="round"
        stroke-dasharray="2 2" />
    <path d="M201.754 115.999L264.5 128" stroke="white" stroke-width="2" stroke-linecap="round"
        stroke-dasharray="2 2" />
    <circle cx="266" cy="128" r="5" fill="white" />
    <path d="M266 93L266 128" stroke="#23812D" stroke-width="3" stroke-linecap="round" />
    <path d="M266.27 93.0002L270.425 100.305" stroke="#23812D" stroke-width="3"
        stroke-linecap="round" />
    <path d="M265.73 93.0002L261.575 100.305" stroke="#23812D" stroke-width="3"
        stroke-linecap="round" />
</svg>