<svg viewBox="0 0 480 396" fill="none" xmlns="http://www.w3.org/2000/svg">
<path d="M22.5356 14.0022L30.5 28.0022" stroke="white" stroke-width="5" stroke-linecap="round"/>
<path d="M21.5 14.0022L13.5356 28.0022" stroke="white" stroke-width="5" stroke-linecap="round"/>
<path d="M275.502 13.5021C277.099 190.442 237.731 253.353 25.0026 342.002" stroke="#C3C3C3" stroke-width="5" stroke-linecap="round"/>
<path d="M281 13.0022L281 353.002" stroke="#C4C4C4" stroke-opacity="0.4" stroke-width="3" stroke-linecap="round" stroke-dasharray="10 10"/>
<path d="M1.84091 23.0022V9.91129H3.78409V11.8886H3.92045C4.15909 11.2408 4.59091 10.7153 5.21591 10.3119C5.84091 9.90845 6.54545 9.70674 7.32955 9.70674C7.47727 9.70674 7.66193 9.70958 7.88352 9.71526C8.10511 9.72095 8.27273 9.72947 8.38636 9.74083V11.7863C8.31818 11.7692 8.16193 11.7437 7.91761 11.7096C7.67898 11.6698 7.42614 11.6499 7.15909 11.6499C6.52273 11.6499 5.95455 11.7834 5.45455 12.0505C4.96023 12.3119 4.56818 12.6755 4.27841 13.1414C3.99432 13.6016 3.85227 14.1272 3.85227 14.7181V23.0022H1.84091Z" fill="white"/>
<path d="M478.114 354.843L476.307 355.354C476.193 355.053 476.026 354.76 475.804 354.476C475.588 354.187 475.293 353.948 474.918 353.76C474.543 353.573 474.062 353.479 473.477 353.479C472.676 353.479 472.009 353.664 471.474 354.033C470.946 354.397 470.682 354.86 470.682 355.422C470.682 355.922 470.864 356.317 471.227 356.607C471.591 356.897 472.159 357.138 472.932 357.331L474.875 357.809C476.045 358.093 476.918 358.528 477.491 359.113C478.065 359.692 478.352 360.439 478.352 361.354C478.352 362.104 478.136 362.775 477.705 363.366C477.278 363.956 476.682 364.422 475.915 364.763C475.148 365.104 474.256 365.275 473.239 365.275C471.903 365.275 470.798 364.985 469.923 364.405C469.048 363.826 468.494 362.979 468.261 361.866L470.17 361.388C470.352 362.093 470.696 362.621 471.202 362.974C471.713 363.326 472.381 363.502 473.205 363.502C474.142 363.502 474.886 363.303 475.438 362.905C475.994 362.502 476.273 362.019 476.273 361.456C476.273 361.002 476.114 360.621 475.795 360.314C475.477 360.002 474.989 359.769 474.33 359.616L472.148 359.104C470.949 358.82 470.068 358.38 469.506 357.783C468.949 357.181 468.67 356.428 468.67 355.525C468.67 354.786 468.878 354.133 469.293 353.564C469.713 352.996 470.284 352.55 471.006 352.226C471.733 351.903 472.557 351.741 473.477 351.741C474.773 351.741 475.79 352.025 476.528 352.593C477.273 353.161 477.801 353.911 478.114 354.843Z" fill="white"/>
<path d="M286.114 365.843L284.307 366.354C284.193 366.053 284.026 365.76 283.804 365.476C283.588 365.187 283.293 364.948 282.918 364.76C282.543 364.573 282.062 364.479 281.477 364.479C280.676 364.479 280.009 364.664 279.474 365.033C278.946 365.397 278.682 365.86 278.682 366.422C278.682 366.922 278.864 367.317 279.227 367.607C279.591 367.897 280.159 368.138 280.932 368.331L282.875 368.809C284.045 369.093 284.918 369.528 285.491 370.113C286.065 370.692 286.352 371.439 286.352 372.354C286.352 373.104 286.136 373.775 285.705 374.366C285.278 374.956 284.682 375.422 283.915 375.763C283.148 376.104 282.256 376.275 281.239 376.275C279.903 376.275 278.798 375.985 277.923 375.405C277.048 374.826 276.494 373.979 276.261 372.866L278.17 372.388C278.352 373.093 278.696 373.621 279.202 373.974C279.713 374.326 280.381 374.502 281.205 374.502C282.142 374.502 282.886 374.303 283.438 373.905C283.994 373.502 284.273 373.019 284.273 372.456C284.273 372.002 284.114 371.621 283.795 371.314C283.477 371.002 282.989 370.769 282.33 370.616L280.148 370.104C278.949 369.82 278.068 369.38 277.506 368.783C276.949 368.181 276.67 367.428 276.67 366.525C276.67 365.786 276.878 365.133 277.293 364.564C277.713 363.996 278.284 363.55 279.006 363.226C279.733 362.903 280.557 362.741 281.477 362.741C282.773 362.741 283.79 363.025 284.528 363.593C285.273 364.161 285.801 364.911 286.114 365.843ZM292.823 379.206C291.46 379.206 290.391 378.724 289.619 377.758C288.846 376.797 288.46 375.474 288.46 373.786C288.46 372.099 288.846 370.78 289.619 369.831C290.391 368.877 291.46 368.4 292.823 368.4C294.17 368.4 295.232 368.871 296.011 369.814C296.795 370.758 297.187 372.081 297.187 373.786C297.187 375.491 296.795 376.82 296.011 377.775C295.232 378.729 294.17 379.206 292.823 379.206ZM292.823 377.672C293.573 377.672 294.175 377.343 294.63 376.684C295.085 376.03 295.312 375.064 295.312 373.786C295.312 372.508 295.085 371.542 294.63 370.888C294.175 370.229 293.573 369.9 292.823 369.9C292.073 369.9 291.471 370.229 291.016 370.888C290.562 371.542 290.335 372.508 290.335 373.786C290.335 375.047 290.556 376.01 290.999 376.675C291.448 377.34 292.056 377.672 292.823 377.672Z" fill="#C3C3C3"/>
<path d="M261 13.0022L261 353.002" stroke="#295EFF" stroke-opacity="0.4" stroke-width="3" stroke-linecap="round" stroke-dasharray="10 10"/>
<path d="M257.114 365.843L255.307 366.354C255.193 366.053 255.026 365.76 254.804 365.476C254.588 365.187 254.293 364.948 253.918 364.76C253.543 364.573 253.062 364.479 252.477 364.479C251.676 364.479 251.009 364.664 250.474 365.033C249.946 365.397 249.682 365.86 249.682 366.422C249.682 366.922 249.864 367.317 250.227 367.607C250.591 367.897 251.159 368.138 251.932 368.331L253.875 368.809C255.045 369.093 255.918 369.528 256.491 370.113C257.065 370.692 257.352 371.439 257.352 372.354C257.352 373.104 257.136 373.775 256.705 374.366C256.278 374.956 255.682 375.422 254.915 375.763C254.148 376.104 253.256 376.275 252.239 376.275C250.903 376.275 249.798 375.985 248.923 375.405C248.048 374.826 247.494 373.979 247.261 372.866L249.17 372.388C249.352 373.093 249.696 373.621 250.202 373.974C250.713 374.326 251.381 374.502 252.205 374.502C253.142 374.502 253.886 374.303 254.438 373.905C254.994 373.502 255.273 373.019 255.273 372.456C255.273 372.002 255.114 371.621 254.795 371.314C254.477 371.002 253.989 370.769 253.33 370.616L251.148 370.104C249.949 369.82 249.068 369.38 248.506 368.783C247.949 368.181 247.67 367.428 247.67 366.525C247.67 365.786 247.878 365.133 248.293 364.564C248.713 363.996 249.284 363.55 250.006 363.226C250.733 362.903 251.557 362.741 252.477 362.741C253.773 362.741 254.79 363.025 255.528 363.593C256.273 364.161 256.801 364.911 257.114 365.843ZM263.823 379.206C262.46 379.206 261.391 378.724 260.619 377.758C259.846 376.797 259.46 375.474 259.46 373.786C259.46 372.099 259.846 370.78 260.619 369.831C261.391 368.877 262.46 368.4 263.823 368.4C265.17 368.4 266.232 368.871 267.011 369.814C267.795 370.758 268.187 372.081 268.187 373.786C268.187 375.491 267.795 376.82 267.011 377.775C266.232 378.729 265.17 379.206 263.823 379.206ZM263.823 377.672C264.573 377.672 265.175 377.343 265.63 376.684C266.085 376.03 266.312 375.064 266.312 373.786C266.312 372.508 266.085 371.542 265.63 370.888C265.175 370.229 264.573 369.9 263.823 369.9C263.073 369.9 262.471 370.229 262.016 370.888C261.562 371.542 261.335 372.508 261.335 373.786C261.335 375.047 261.556 376.01 261.999 376.675C262.448 377.34 263.056 377.672 263.823 377.672ZM272.723 358.547V360.081C272.723 360.547 272.638 361.045 272.467 361.573C272.303 362.096 272.058 362.604 271.734 363.099C271.416 363.587 271.03 364.013 270.575 364.377L269.484 363.491C269.842 362.979 270.152 362.448 270.413 361.897C270.68 361.34 270.814 360.746 270.814 360.116V358.547H272.723Z" fill="#295EFF"/>
<path d="M255.999 13.5021C256.882 188.549 245.6 289.678 24.9982 342.002" stroke="#295EFF" stroke-width="5" stroke-linecap="round"/>
<rect x="411" y="15.002" width="20" height="20" rx="6" fill="#D9D9D9"/>
<path d="M445.773 31.1838C444.985 31.1838 444.294 30.9963 443.699 30.6213C443.108 30.2463 442.646 29.7217 442.312 29.0474C441.983 28.3732 441.818 27.5853 441.818 26.6838C441.818 25.7747 441.983 24.9811 442.312 24.3031C442.646 23.6251 443.108 23.0985 443.699 22.7235C444.294 22.3485 444.985 22.161 445.773 22.161C446.561 22.161 447.25 22.3485 447.841 22.7235C448.436 23.0985 448.898 23.6251 449.227 24.3031C449.561 24.9811 449.727 25.7747 449.727 26.6838C449.727 27.5853 449.561 28.3732 449.227 29.0474C448.898 29.7217 448.436 30.2463 447.841 30.6213C447.25 30.9963 446.561 31.1838 445.773 31.1838ZM445.773 29.9792C446.371 29.9792 446.864 29.8258 447.25 29.519C447.636 29.2122 447.922 28.8088 448.108 28.3088C448.294 27.8088 448.386 27.2671 448.386 26.6838C448.386 26.1004 448.294 25.5569 448.108 25.0531C447.922 24.5493 447.636 24.1421 447.25 23.8315C446.864 23.5209 446.371 23.3656 445.773 23.3656C445.174 23.3656 444.682 23.5209 444.295 23.8315C443.909 24.1421 443.623 24.5493 443.438 25.0531C443.252 25.5569 443.159 26.1004 443.159 26.6838C443.159 27.2671 443.252 27.8088 443.438 28.3088C443.623 28.8088 443.909 29.2122 444.295 29.519C444.682 29.8258 445.174 29.9792 445.773 29.9792ZM453.115 19.3656V31.002H451.774V19.3656H453.115ZM458.866 31.1838C458.139 31.1838 457.497 31.0001 456.94 30.6326C456.384 30.2614 455.948 29.7387 455.634 29.0645C455.319 28.3864 455.162 27.5853 455.162 26.661C455.162 25.7444 455.319 24.9489 455.634 24.2747C455.948 23.6004 456.385 23.0796 456.946 22.7122C457.507 22.3448 458.154 22.161 458.889 22.161C459.457 22.161 459.906 22.2557 460.236 22.4451C460.569 22.6307 460.823 22.8429 460.997 23.0815C461.175 23.3163 461.313 23.5095 461.412 23.661H461.526V19.3656H462.866V31.002H461.571V29.661H461.412C461.313 29.8201 461.173 30.0209 460.991 30.2633C460.81 30.502 460.55 30.716 460.213 30.9054C459.876 31.091 459.427 31.1838 458.866 31.1838ZM459.048 29.9792C459.586 29.9792 460.041 29.8391 460.412 29.5588C460.783 29.2747 461.065 28.8826 461.259 28.3826C461.452 27.8788 461.548 27.2974 461.548 26.6383C461.548 25.9868 461.454 25.4167 461.264 24.9281C461.075 24.4357 460.795 24.0531 460.423 23.7804C460.052 23.5038 459.594 23.3656 459.048 23.3656C458.48 23.3656 458.007 23.5114 457.628 23.8031C457.253 24.091 456.971 24.483 456.781 24.9792C456.596 25.4716 456.503 26.0247 456.503 26.6383C456.503 27.2595 456.598 27.8239 456.787 28.3315C456.98 28.8353 457.264 29.2368 457.639 29.536C458.018 29.8315 458.488 29.9792 459.048 29.9792Z" fill="#D9D9D9"/>
<rect x="411" y="45.002" width="20" height="20" rx="6" fill="#295EFF"/>
<path d="M443.568 55.752V61.002H442.227V52.2747H443.523V53.6383H443.636C443.841 53.1951 444.152 52.8391 444.568 52.5701C444.985 52.2974 445.523 52.161 446.182 52.161C446.773 52.161 447.29 52.2823 447.733 52.5247C448.176 52.7633 448.521 53.127 448.767 53.6156C449.013 54.1004 449.136 54.7141 449.136 55.4565V61.002H447.795V55.5474C447.795 54.8618 447.617 54.3277 447.261 53.9451C446.905 53.5588 446.417 53.3656 445.795 53.3656C445.367 53.3656 444.985 53.4584 444.648 53.644C444.314 53.8296 444.051 54.1004 443.858 54.4565C443.665 54.8126 443.568 55.2444 443.568 55.752ZM455.246 61.1838C454.405 61.1838 453.679 60.9982 453.07 60.627C452.464 60.252 451.996 59.7292 451.666 59.0588C451.34 58.3845 451.178 57.6004 451.178 56.7065C451.178 55.8126 451.34 55.0247 451.666 54.3429C451.996 53.6573 452.454 53.1232 453.041 52.7406C453.632 52.3542 454.321 52.161 455.109 52.161C455.564 52.161 456.013 52.2368 456.456 52.3883C456.899 52.5398 457.303 52.786 457.666 53.127C458.03 53.4641 458.32 53.911 458.536 54.4679C458.751 55.0247 458.859 55.7103 458.859 56.5247V57.0929H452.132V55.9338H457.496C457.496 55.4413 457.397 55.002 457.2 54.6156C457.007 54.2292 456.731 53.9243 456.371 53.7008C456.015 53.4773 455.594 53.3656 455.109 53.3656C454.575 53.3656 454.113 53.4982 453.723 53.7633C453.337 54.0247 453.039 54.3656 452.831 54.786C452.623 55.2065 452.518 55.6573 452.518 56.1383V56.911C452.518 57.5701 452.632 58.1288 452.859 58.5872C453.09 59.0417 453.411 59.3883 453.82 59.627C454.229 59.8618 454.704 59.9792 455.246 59.9792C455.598 59.9792 455.916 59.93 456.2 59.8315C456.488 59.7292 456.736 59.5777 456.945 59.377C457.153 59.1724 457.314 58.9186 457.428 58.6156L458.723 58.9792C458.587 59.4186 458.357 59.805 458.036 60.1383C457.714 60.4679 457.316 60.7254 456.842 60.911C456.369 61.0929 455.837 61.1838 455.246 61.1838ZM462.876 61.002L460.217 52.2747H461.626L463.513 58.9565H463.604L465.467 52.2747H466.899L468.74 58.9338H468.831L470.717 52.2747H472.126L469.467 61.002H468.149L466.24 54.2974H466.104L464.195 61.002H462.876Z" fill="#295EFF"/>
<path d="M22 15.002L22 342.002" stroke="white" stroke-width="5" stroke-linecap="round"/>
<path d="M457 345.002L22 345.002" stroke="white" stroke-width="5" stroke-linecap="round"/>
<path d="M457 346.02L443 353.984" stroke="white" stroke-width="5" stroke-linecap="round"/>
<path d="M457 344.984L443 337.02" stroke="white" stroke-width="5" stroke-linecap="round"/>
<path d="M102.773 130.182C101.955 130.182 101.25 129.989 100.659 129.602C100.068 129.216 99.6136 128.684 99.2955 128.006C98.9773 127.328 98.8182 126.553 98.8182 125.682C98.8182 124.795 98.9811 124.013 99.3068 123.335C99.6364 122.653 100.095 122.121 100.682 121.739C101.273 121.352 101.962 121.159 102.75 121.159C103.364 121.159 103.917 121.273 104.409 121.5C104.902 121.727 105.305 122.045 105.619 122.455C105.934 122.864 106.129 123.341 106.205 123.886H104.864C104.761 123.489 104.534 123.136 104.182 122.83C103.833 122.519 103.364 122.364 102.773 122.364C102.25 122.364 101.792 122.5 101.398 122.773C101.008 123.042 100.703 123.422 100.483 123.915C100.267 124.403 100.159 124.977 100.159 125.636C100.159 126.311 100.265 126.898 100.477 127.398C100.693 127.898 100.996 128.286 101.386 128.562C101.78 128.839 102.242 128.977 102.773 128.977C103.121 128.977 103.438 128.917 103.722 128.795C104.006 128.674 104.246 128.5 104.443 128.273C104.64 128.045 104.78 127.773 104.864 127.455H106.205C106.129 127.97 105.941 128.434 105.642 128.847C105.347 129.256 104.955 129.581 104.466 129.824C103.981 130.062 103.417 130.182 102.773 130.182ZM113.665 126.432V121.273H115.006V130H113.665V128.523H113.574C113.369 128.966 113.051 129.343 112.619 129.653C112.188 129.96 111.642 130.114 110.983 130.114C110.438 130.114 109.953 129.994 109.528 129.756C109.104 129.513 108.771 129.15 108.528 128.665C108.286 128.176 108.165 127.561 108.165 126.818V121.273H109.506V126.727C109.506 127.364 109.684 127.871 110.04 128.25C110.4 128.629 110.858 128.818 111.415 128.818C111.748 128.818 112.087 128.733 112.432 128.562C112.78 128.392 113.072 128.131 113.307 127.778C113.545 127.426 113.665 126.977 113.665 126.432ZM117.462 130V121.273H118.757V122.591H118.848C119.007 122.159 119.295 121.809 119.712 121.54C120.128 121.271 120.598 121.136 121.121 121.136C121.219 121.136 121.342 121.138 121.49 121.142C121.638 121.146 121.75 121.152 121.825 121.159V122.523C121.78 122.511 121.676 122.494 121.513 122.472C121.354 122.445 121.185 122.432 121.007 122.432C120.583 122.432 120.204 122.521 119.871 122.699C119.541 122.873 119.28 123.116 119.087 123.426C118.897 123.733 118.803 124.083 118.803 124.477V130H117.462ZM123.415 130V121.273H124.71V122.591H124.801C124.96 122.159 125.248 121.809 125.665 121.54C126.081 121.271 126.551 121.136 127.074 121.136C127.172 121.136 127.295 121.138 127.443 121.142C127.591 121.146 127.703 121.152 127.778 121.159V122.523C127.733 122.511 127.629 122.494 127.466 122.472C127.307 122.445 127.138 122.432 126.96 122.432C126.536 122.432 126.157 122.521 125.824 122.699C125.494 122.873 125.233 123.116 125.04 123.426C124.85 123.733 124.756 124.083 124.756 124.477V130H123.415ZM132.761 130.182C131.92 130.182 131.195 129.996 130.585 129.625C129.979 129.25 129.511 128.727 129.182 128.057C128.856 127.383 128.693 126.598 128.693 125.705C128.693 124.811 128.856 124.023 129.182 123.341C129.511 122.655 129.97 122.121 130.557 121.739C131.148 121.352 131.837 121.159 132.625 121.159C133.08 121.159 133.528 121.235 133.972 121.386C134.415 121.538 134.818 121.784 135.182 122.125C135.545 122.462 135.835 122.909 136.051 123.466C136.267 124.023 136.375 124.708 136.375 125.523V126.091H129.648V124.932H135.011C135.011 124.439 134.913 124 134.716 123.614C134.523 123.227 134.246 122.922 133.886 122.699C133.53 122.475 133.11 122.364 132.625 122.364C132.091 122.364 131.629 122.496 131.239 122.761C130.852 123.023 130.555 123.364 130.347 123.784C130.138 124.205 130.034 124.655 130.034 125.136V125.909C130.034 126.568 130.148 127.127 130.375 127.585C130.606 128.04 130.926 128.386 131.335 128.625C131.744 128.86 132.22 128.977 132.761 128.977C133.114 128.977 133.432 128.928 133.716 128.83C134.004 128.727 134.252 128.576 134.46 128.375C134.669 128.17 134.83 127.917 134.943 127.614L136.239 127.977C136.102 128.417 135.873 128.803 135.551 129.136C135.229 129.466 134.831 129.723 134.358 129.909C133.884 130.091 133.352 130.182 132.761 130.182ZM139.756 124.75V130H138.415V121.273H139.71V122.636H139.824C140.028 122.193 140.339 121.837 140.756 121.568C141.172 121.295 141.71 121.159 142.369 121.159C142.96 121.159 143.477 121.28 143.92 121.523C144.364 121.761 144.708 122.125 144.955 122.614C145.201 123.098 145.324 123.712 145.324 124.455V130H143.983V124.545C143.983 123.86 143.805 123.326 143.449 122.943C143.093 122.557 142.604 122.364 141.983 122.364C141.555 122.364 141.172 122.456 140.835 122.642C140.502 122.828 140.239 123.098 140.045 123.455C139.852 123.811 139.756 124.242 139.756 124.75ZM151.57 121.273V122.409H147.047V121.273H151.57ZM148.365 119.182H149.706V127.5C149.706 127.879 149.761 128.163 149.871 128.352C149.984 128.538 150.128 128.663 150.303 128.727C150.481 128.788 150.668 128.818 150.865 128.818C151.013 128.818 151.134 128.811 151.229 128.795C151.323 128.777 151.399 128.761 151.456 128.75L151.729 129.955C151.638 129.989 151.511 130.023 151.348 130.057C151.185 130.095 150.979 130.114 150.729 130.114C150.35 130.114 149.979 130.032 149.615 129.869C149.255 129.706 148.956 129.458 148.717 129.125C148.482 128.792 148.365 128.371 148.365 127.864V119.182ZM105.409 138.227L104.205 138.568C104.129 138.367 104.017 138.172 103.869 137.983C103.725 137.79 103.528 137.631 103.278 137.506C103.028 137.381 102.708 137.318 102.318 137.318C101.784 137.318 101.339 137.441 100.983 137.688C100.631 137.93 100.455 138.239 100.455 138.614C100.455 138.947 100.576 139.21 100.818 139.403C101.061 139.597 101.439 139.758 101.955 139.886L103.25 140.205C104.03 140.394 104.612 140.684 104.994 141.074C105.377 141.46 105.568 141.958 105.568 142.568C105.568 143.068 105.424 143.515 105.136 143.909C104.852 144.303 104.455 144.614 103.943 144.841C103.432 145.068 102.837 145.182 102.159 145.182C101.269 145.182 100.532 144.989 99.9489 144.602C99.3655 144.216 98.9962 143.652 98.8409 142.909L100.114 142.591C100.235 143.061 100.464 143.413 100.801 143.648C101.142 143.883 101.587 144 102.136 144C102.761 144 103.258 143.867 103.625 143.602C103.996 143.333 104.182 143.011 104.182 142.636C104.182 142.333 104.076 142.08 103.864 141.875C103.652 141.667 103.326 141.511 102.886 141.409L101.432 141.068C100.633 140.879 100.045 140.585 99.6705 140.188C99.2992 139.786 99.1136 139.284 99.1136 138.682C99.1136 138.189 99.2519 137.754 99.5284 137.375C99.8087 136.996 100.189 136.699 100.67 136.483C101.155 136.267 101.705 136.159 102.318 136.159C103.182 136.159 103.86 136.348 104.352 136.727C104.848 137.106 105.201 137.606 105.409 138.227ZM113.087 141.432V136.273H114.428V145H113.087V143.523H112.996C112.791 143.966 112.473 144.343 112.041 144.653C111.609 144.96 111.064 145.114 110.405 145.114C109.859 145.114 109.375 144.994 108.95 144.756C108.526 144.513 108.193 144.15 107.95 143.665C107.708 143.176 107.587 142.561 107.587 141.818V136.273H108.928V141.727C108.928 142.364 109.106 142.871 109.462 143.25C109.821 143.629 110.28 143.818 110.837 143.818C111.17 143.818 111.509 143.733 111.854 143.562C112.202 143.392 112.494 143.131 112.729 142.778C112.967 142.426 113.087 141.977 113.087 141.432ZM116.884 148.273V136.273H118.179V137.659H118.338C118.437 137.508 118.573 137.314 118.747 137.08C118.925 136.841 119.179 136.629 119.509 136.443C119.842 136.254 120.293 136.159 120.861 136.159C121.596 136.159 122.243 136.343 122.804 136.71C123.365 137.078 123.802 137.598 124.116 138.273C124.431 138.947 124.588 139.742 124.588 140.659C124.588 141.583 124.431 142.384 124.116 143.062C123.802 143.737 123.366 144.259 122.81 144.631C122.253 144.998 121.611 145.182 120.884 145.182C120.323 145.182 119.874 145.089 119.537 144.903C119.2 144.714 118.94 144.5 118.759 144.261C118.577 144.019 118.437 143.818 118.338 143.659H118.224V148.273H116.884ZM118.202 140.636C118.202 141.295 118.298 141.877 118.491 142.381C118.685 142.881 118.967 143.273 119.338 143.557C119.709 143.837 120.164 143.977 120.702 143.977C121.262 143.977 121.73 143.83 122.105 143.534C122.484 143.235 122.768 142.833 122.957 142.33C123.151 141.822 123.247 141.258 123.247 140.636C123.247 140.023 123.152 139.47 122.963 138.977C122.777 138.481 122.495 138.089 122.116 137.801C121.741 137.509 121.27 137.364 120.702 137.364C120.156 137.364 119.698 137.502 119.327 137.778C118.955 138.051 118.675 138.434 118.486 138.926C118.296 139.415 118.202 139.985 118.202 140.636ZM126.634 148.273V136.273H127.929V137.659H128.088C128.187 137.508 128.323 137.314 128.497 137.08C128.675 136.841 128.929 136.629 129.259 136.443C129.592 136.254 130.043 136.159 130.611 136.159C131.346 136.159 131.993 136.343 132.554 136.71C133.115 137.078 133.552 137.598 133.866 138.273C134.181 138.947 134.338 139.742 134.338 140.659C134.338 141.583 134.181 142.384 133.866 143.062C133.552 143.737 133.116 144.259 132.56 144.631C132.003 144.998 131.361 145.182 130.634 145.182C130.073 145.182 129.624 145.089 129.287 144.903C128.95 144.714 128.69 144.5 128.509 144.261C128.327 144.019 128.187 143.818 128.088 143.659H127.974V148.273H126.634ZM127.952 140.636C127.952 141.295 128.048 141.877 128.241 142.381C128.435 142.881 128.717 143.273 129.088 143.557C129.459 143.837 129.914 143.977 130.452 143.977C131.012 143.977 131.48 143.83 131.855 143.534C132.234 143.235 132.518 142.833 132.707 142.33C132.901 141.822 132.997 141.258 132.997 140.636C132.997 140.023 132.902 139.47 132.713 138.977C132.527 138.481 132.245 138.089 131.866 137.801C131.491 137.509 131.02 137.364 130.452 137.364C129.906 137.364 129.448 137.502 129.077 137.778C128.705 138.051 128.425 138.434 128.236 138.926C128.046 139.415 127.952 139.985 127.952 140.636ZM137.724 133.364V145H136.384V133.364H137.724ZM141.044 148.273C140.817 148.273 140.614 148.254 140.436 148.216C140.258 148.182 140.135 148.148 140.067 148.114L140.408 146.932C140.733 147.015 141.021 147.045 141.271 147.023C141.521 147 141.743 146.888 141.936 146.688C142.133 146.491 142.313 146.17 142.476 145.727L142.726 145.045L139.499 136.273H140.953L143.362 143.227H143.453L145.862 136.273H147.317L143.612 146.273C143.446 146.723 143.239 147.097 142.993 147.392C142.747 147.691 142.461 147.913 142.135 148.057C141.813 148.201 141.449 148.273 141.044 148.273Z" fill="white"/>
<line x1="155.414" y1="136.019" x2="228.019" y2="210.586" stroke="white" stroke-width="2" stroke-linecap="round" stroke-dasharray="2 2"/>
<circle cx="228" cy="212" r="5" fill="white"/>
</svg>
