<svg viewBox="0 0 506 393" fill="none" xmlns="http://www.w3.org/2000/svg">
    <path d="M463 194L36.0001 194" stroke="#848484" stroke-opacity="0.4" stroke-width="3"
        stroke-linecap="round" stroke-dasharray="10 10" />
    <path
        d="M1.84091 27.9091V9.90909H3.78409V11.9886H4.02273C4.17045 11.7614 4.375 11.4716 4.63636 11.1193C4.90341 10.7614 5.28409 10.4432 5.77841 10.1648C6.27841 9.88068 6.95455 9.73864 7.80682 9.73864C8.90909 9.73864 9.88068 10.0142 10.7216 10.5653C11.5625 11.1165 12.2188 11.8977 12.6903 12.9091C13.1619 13.9205 13.3977 15.1136 13.3977 16.4886C13.3977 17.875 13.1619 19.0767 12.6903 20.0938C12.2188 21.1051 11.5653 21.8892 10.7301 22.446C9.89489 22.9972 8.93182 23.2727 7.84091 23.2727C7 23.2727 6.3267 23.1335 5.82102 22.8551C5.31534 22.571 4.92614 22.25 4.65341 21.892C4.38068 21.5284 4.17045 21.2273 4.02273 20.9886H3.85227V27.9091H1.84091ZM3.81818 16.4545C3.81818 17.4432 3.96307 18.3153 4.25284 19.071C4.54261 19.821 4.96591 20.4091 5.52273 20.8352C6.07955 21.2557 6.76136 21.4659 7.56818 21.4659C8.40909 21.4659 9.1108 21.2443 9.6733 20.8011C10.2415 20.3523 10.6676 19.75 10.9517 18.9943C11.2415 18.233 11.3864 17.3864 11.3864 16.4545C11.3864 15.5341 11.2443 14.7045 10.9602 13.9659C10.6818 13.2216 10.2585 12.6335 9.69034 12.2017C9.12784 11.7642 8.42045 11.5455 7.56818 11.5455C6.75 11.5455 6.0625 11.7528 5.50568 12.1676C4.94886 12.5767 4.52841 13.1506 4.24432 13.8892C3.96023 14.6222 3.81818 15.4773 3.81818 16.4545Z"
        fill="white" />
    <path
        d="M503.137 364.581L501.33 365.093C501.217 364.792 501.049 364.499 500.827 364.215C500.612 363.925 500.316 363.687 499.941 363.499C499.566 363.312 499.086 363.218 498.501 363.218C497.7 363.218 497.032 363.402 496.498 363.772C495.969 364.135 495.705 364.598 495.705 365.161C495.705 365.661 495.887 366.056 496.251 366.346C496.614 366.635 497.183 366.877 497.955 367.07L499.898 367.547C501.069 367.831 501.941 368.266 502.515 368.851C503.089 369.431 503.376 370.178 503.376 371.093C503.376 371.843 503.16 372.513 502.728 373.104C502.302 373.695 501.705 374.161 500.938 374.502C500.171 374.843 499.279 375.013 498.262 375.013C496.927 375.013 495.822 374.723 494.947 374.144C494.072 373.564 493.518 372.718 493.285 371.604L495.194 371.127C495.376 371.831 495.719 372.36 496.225 372.712C496.737 373.064 497.404 373.24 498.228 373.24C499.165 373.24 499.91 373.042 500.461 372.644C501.018 372.24 501.296 371.758 501.296 371.195C501.296 370.74 501.137 370.36 500.819 370.053C500.501 369.74 500.012 369.508 499.353 369.354L497.171 368.843C495.972 368.559 495.092 368.118 494.529 367.522C493.972 366.919 493.694 366.167 493.694 365.263C493.694 364.525 493.901 363.871 494.316 363.303C494.737 362.735 495.308 362.289 496.029 361.965C496.756 361.641 497.58 361.479 498.501 361.479C499.796 361.479 500.813 361.763 501.552 362.331C502.296 362.9 502.825 363.65 503.137 364.581Z"
        fill="white" />
    <path
        d="M15.9432 298.545V316H13.8295V300.761H13.7273L9.46591 303.591V301.443L13.8295 298.545H15.9432Z"
        fill="white" />
    <path d="M279.536 40.5L279.536 365.087" stroke="#295EFF" stroke-opacity="0.4" stroke-width="3"
        stroke-linecap="round" stroke-dasharray="10 10" />
    <path d="M256.536 40.5L256.536 365.087" stroke="#848484" stroke-opacity="0.4" stroke-width="3"
        stroke-linecap="round" stroke-dasharray="10 10" />
    <path
        d="M281.177 375.928L279.37 376.439C279.257 376.138 279.089 375.845 278.867 375.561C278.652 375.272 278.356 375.033 277.981 374.845C277.606 374.658 277.126 374.564 276.541 374.564C275.74 374.564 275.072 374.749 274.538 375.118C274.009 375.482 273.745 375.945 273.745 376.507C273.745 377.007 273.927 377.402 274.291 377.692C274.654 377.982 275.223 378.223 275.995 378.416L277.938 378.894C279.109 379.178 279.981 379.612 280.555 380.198C281.129 380.777 281.416 381.524 281.416 382.439C281.416 383.189 281.2 383.86 280.768 384.451C280.342 385.041 279.745 385.507 278.978 385.848C278.211 386.189 277.319 386.36 276.302 386.36C274.967 386.36 273.862 386.07 272.987 385.49C272.112 384.911 271.558 384.064 271.325 382.951L273.234 382.473C273.416 383.178 273.759 383.706 274.265 384.059C274.777 384.411 275.444 384.587 276.268 384.587C277.206 384.587 277.95 384.388 278.501 383.99C279.058 383.587 279.336 383.104 279.336 382.541C279.336 382.087 279.177 381.706 278.859 381.399C278.541 381.087 278.052 380.854 277.393 380.701L275.211 380.189C274.012 379.905 273.132 379.465 272.569 378.868C272.012 378.266 271.734 377.513 271.734 376.61C271.734 375.871 271.941 375.218 272.356 374.649C272.777 374.081 273.348 373.635 274.069 373.311C274.796 372.987 275.62 372.826 276.541 372.826C277.836 372.826 278.853 373.11 279.592 373.678C280.336 374.246 280.865 374.996 281.177 375.928ZM287.887 389.291C286.523 389.291 285.455 388.809 284.682 387.843C283.909 386.882 283.523 385.559 283.523 383.871C283.523 382.184 283.909 380.865 284.682 379.916C285.455 378.962 286.523 378.485 287.887 378.485C289.233 378.485 290.296 378.956 291.074 379.899C291.858 380.843 292.25 382.166 292.25 383.871C292.25 385.576 291.858 386.905 291.074 387.86C290.296 388.814 289.233 389.291 287.887 389.291ZM287.887 387.757C288.637 387.757 289.239 387.428 289.693 386.769C290.148 386.115 290.375 385.149 290.375 383.871C290.375 382.593 290.148 381.627 289.693 380.973C289.239 380.314 288.637 379.985 287.887 379.985C287.137 379.985 286.534 380.314 286.08 380.973C285.625 381.627 285.398 382.593 285.398 383.871C285.398 385.132 285.62 386.095 286.063 386.76C286.512 387.425 287.12 387.757 287.887 387.757Z"
        fill="#295EFF" />
    <path
        d="M263.177 375.841L261.37 376.352C261.257 376.051 261.089 375.759 260.867 375.474C260.652 375.185 260.356 374.946 259.981 374.759C259.606 374.571 259.126 374.477 258.541 374.477C257.74 374.477 257.072 374.662 256.538 375.031C256.009 375.395 255.745 375.858 255.745 376.42C255.745 376.92 255.927 377.315 256.291 377.605C256.654 377.895 257.223 378.136 257.995 378.33L259.938 378.807C261.109 379.091 261.981 379.526 262.555 380.111C263.129 380.69 263.416 381.437 263.416 382.352C263.416 383.102 263.2 383.773 262.768 384.364C262.342 384.955 261.745 385.42 260.978 385.761C260.211 386.102 259.319 386.273 258.302 386.273C256.967 386.273 255.862 385.983 254.987 385.403C254.112 384.824 253.558 383.977 253.325 382.864L255.234 382.386C255.416 383.091 255.759 383.619 256.265 383.972C256.777 384.324 257.444 384.5 258.268 384.5C259.206 384.5 259.95 384.301 260.501 383.903C261.058 383.5 261.336 383.017 261.336 382.455C261.336 382 261.177 381.619 260.859 381.312C260.541 381 260.052 380.767 259.393 380.614L257.211 380.102C256.012 379.818 255.132 379.378 254.569 378.781C254.012 378.179 253.734 377.426 253.734 376.523C253.734 375.784 253.941 375.131 254.356 374.562C254.777 373.994 255.348 373.548 256.069 373.224C256.796 372.901 257.62 372.739 258.541 372.739C259.836 372.739 260.853 373.023 261.592 373.591C262.336 374.159 262.865 374.909 263.177 375.841Z"
        fill="white" />
    <path d="M273.434 88.0002C272.434 144.5 273.434 316.498 33.5248 308.15" stroke="#295EFF"
        stroke-width="5" stroke-linecap="round" />
    <path d="M33.0081 12.3779L33.0081 349.677" stroke="white" stroke-width="5"
        stroke-linecap="round" />
    <path d="M33.0078 12.3779L33.0078 349.677" stroke="white" stroke-width="5"
        stroke-linecap="round" />
    <path d="M481.709 352.772L33.0082 352.772" stroke="white" stroke-width="5"
        stroke-linecap="round" />
    <path d="M34.0577 9.28337L42.2729 23.7243" stroke="white" stroke-width="5"
        stroke-linecap="round" />
    <path d="M32.9897 9.28337L24.7745 23.7243" stroke="white" stroke-width="5"
        stroke-linecap="round" />
    <path d="M481.709 352.79L467.268 361.006" stroke="white" stroke-width="5" stroke-linecap="round" />
    <path d="M481.709 351.722L467.268 343.507" stroke="white" stroke-width="5"
        stroke-linecap="round" />
    <path
        d="M393.386 176.273V177.67H388.545V176.273H393.386ZM389.773 185V175.455C389.773 174.602 390.026 173.957 390.531 173.52C391.043 173.082 391.665 172.864 392.398 172.864C392.705 172.864 392.986 172.889 393.241 172.94C393.497 172.991 393.693 173.034 393.83 173.068L393.455 174.466C393.386 174.449 393.287 174.429 393.156 174.406C393.031 174.378 392.892 174.364 392.739 174.364C392.364 174.364 392.082 174.463 391.895 174.662C391.707 174.855 391.614 175.131 391.614 175.489V185H389.773ZM395.136 185V176.273H396.942V185H395.136ZM396.056 175.08C395.766 175.08 395.516 174.977 395.306 174.773C395.102 174.568 394.999 174.33 394.999 174.057C394.999 173.784 395.102 173.545 395.306 173.341C395.516 173.136 395.766 173.034 396.056 173.034C396.329 173.034 396.567 173.136 396.772 173.341C396.977 173.545 397.079 173.784 397.079 174.057C397.079 174.347 396.977 174.591 396.772 174.79C396.567 174.983 396.329 175.08 396.056 175.08ZM401.01 179.75V185H399.203V176.273H400.942V177.773H401.01C401.214 177.278 401.55 176.889 402.016 176.605C402.482 176.315 403.021 176.17 403.635 176.17C404.521 176.17 405.243 176.457 405.8 177.031C406.357 177.605 406.635 178.386 406.635 179.375V185H404.828V179.682C404.828 179.068 404.655 178.585 404.308 178.233C403.967 177.881 403.516 177.705 402.953 177.705C402.391 177.705 401.925 177.889 401.555 178.259C401.192 178.622 401.01 179.119 401.01 179.75ZM411.303 185.17C410.781 185.17 410.303 185.071 409.871 184.872C409.445 184.679 409.104 184.389 408.849 184.003C408.599 183.622 408.474 183.148 408.474 182.58C408.474 182.153 408.55 181.787 408.704 181.48C408.863 181.168 409.087 180.909 409.377 180.705C409.673 180.5 410.019 180.338 410.417 180.219C410.82 180.094 411.263 180.006 411.746 179.955C412.292 179.898 412.724 179.847 413.042 179.801C413.36 179.756 413.587 179.685 413.724 179.588C413.86 179.491 413.928 179.341 413.928 179.136V179C413.928 178.54 413.783 178.182 413.494 177.926C413.204 177.665 412.803 177.534 412.292 177.534C411.815 177.534 411.414 177.642 411.09 177.858C410.766 178.074 410.553 178.352 410.451 178.693L408.746 178.489C408.934 177.79 409.337 177.23 409.957 176.81C410.582 176.384 411.371 176.17 412.326 176.17C412.928 176.17 413.491 176.273 414.013 176.477C414.536 176.676 414.96 176.989 415.283 177.415C415.607 177.835 415.769 178.375 415.769 179.034V185H414.031V183.67H413.962C413.758 184.08 413.434 184.432 412.991 184.727C412.548 185.023 411.985 185.17 411.303 185.17ZM411.781 183.875C412.201 183.875 412.576 183.781 412.906 183.594C413.235 183.406 413.494 183.151 413.681 182.827C413.869 182.503 413.962 182.136 413.962 181.727V180.67C413.871 180.739 413.712 180.807 413.485 180.875C413.263 180.938 413.019 180.994 412.752 181.045C412.491 181.091 412.258 181.125 412.053 181.148C411.388 181.233 410.914 181.389 410.63 181.616C410.352 181.844 410.212 182.153 410.212 182.545C410.212 182.955 410.363 183.278 410.664 183.517C410.965 183.756 411.337 183.875 411.781 183.875ZM419.783 173.375V185H417.977V173.375H419.783ZM428.781 188.273V176.273H430.588V177.943H430.656C430.781 177.648 430.955 177.366 431.176 177.099C431.403 176.827 431.688 176.605 432.028 176.435C432.375 176.259 432.793 176.17 433.281 176.17C433.929 176.17 434.514 176.344 435.037 176.69C435.565 177.037 435.983 177.545 436.29 178.216C436.602 178.886 436.759 179.705 436.759 180.67C436.759 181.591 436.608 182.386 436.307 183.057C436.006 183.733 435.594 184.253 435.071 184.616C434.548 184.986 433.952 185.17 433.281 185.17C432.793 185.17 432.375 185.082 432.028 184.906C431.688 184.736 431.403 184.514 431.176 184.241C430.955 183.974 430.781 183.693 430.656 183.398H430.588V188.273H428.781ZM430.554 180.636C430.554 181.523 430.747 182.25 431.134 182.818C431.52 183.386 432.054 183.67 432.736 183.67C433.202 183.67 433.597 183.537 433.92 183.27C434.244 183.009 434.491 182.648 434.662 182.188C434.832 181.733 434.918 181.216 434.918 180.636C434.918 179.767 434.727 179.051 434.347 178.489C433.972 177.92 433.435 177.636 432.736 177.636C432.281 177.636 431.889 177.764 431.56 178.02C431.236 178.27 430.986 178.622 430.81 179.077C430.639 179.526 430.554 180.045 430.554 180.636ZM438.625 185V176.273H440.398V177.739H440.466C440.636 177.227 440.926 176.838 441.335 176.571C441.744 176.304 442.205 176.17 442.716 176.17C442.955 176.17 443.162 176.196 443.338 176.247C443.52 176.293 443.688 176.358 443.841 176.443L443.295 177.943C443.176 177.892 443.043 177.852 442.895 177.824C442.747 177.79 442.597 177.773 442.443 177.773C441.881 177.773 441.403 177.963 441.011 178.344C440.625 178.724 440.432 179.205 440.432 179.784V185H438.625ZM445.175 185V176.273H446.982V185H445.175ZM446.095 175.08C445.805 175.08 445.555 174.977 445.345 174.773C445.141 174.568 445.038 174.33 445.038 174.057C445.038 173.784 445.141 173.545 445.345 173.341C445.555 173.136 445.805 173.034 446.095 173.034C446.368 173.034 446.607 173.136 446.811 173.341C447.016 173.545 447.118 173.784 447.118 174.057C447.118 174.347 447.016 174.591 446.811 174.79C446.607 174.983 446.368 175.08 446.095 175.08ZM452.924 185.17C452.094 185.17 451.373 184.977 450.759 184.591C450.146 184.205 449.671 183.673 449.336 182.997C449.001 182.321 448.833 181.545 448.833 180.67C448.833 179.795 449.001 179.02 449.336 178.344C449.671 177.668 450.146 177.136 450.759 176.75C451.373 176.364 452.094 176.17 452.924 176.17C453.947 176.17 454.793 176.455 455.464 177.023C456.14 177.585 456.521 178.335 456.606 179.273H454.867C454.799 178.83 454.6 178.44 454.271 178.105C453.941 177.77 453.504 177.602 452.958 177.602C452.515 177.602 452.12 177.727 451.773 177.977C451.433 178.227 451.163 178.58 450.964 179.034C450.771 179.489 450.674 180.023 450.674 180.636C450.674 181.261 450.768 181.804 450.955 182.264C451.148 182.724 451.415 183.08 451.756 183.33C452.103 183.58 452.504 183.705 452.958 183.705C453.401 183.705 453.808 183.565 454.177 183.287C454.552 183.014 454.782 182.597 454.867 182.034H456.606C456.521 182.972 456.148 183.727 455.489 184.301C454.836 184.881 453.981 185.17 452.924 185.17ZM462.203 185.17C461.351 185.17 460.612 184.983 459.987 184.608C459.368 184.233 458.888 183.707 458.547 183.031C458.212 182.355 458.044 181.568 458.044 180.67C458.044 179.784 458.214 179.003 458.555 178.327C458.896 177.651 459.371 177.122 459.979 176.741C460.587 176.361 461.294 176.17 462.101 176.17C462.828 176.17 463.487 176.338 464.078 176.673C464.675 177.003 465.146 177.491 465.493 178.139C465.845 178.781 466.021 179.568 466.021 180.5V181.08H458.828V179.92H464.317C464.317 179.466 464.223 179.062 464.036 178.71C463.848 178.352 463.589 178.074 463.26 177.875C462.93 177.67 462.555 177.568 462.135 177.568C461.692 177.568 461.297 177.682 460.95 177.909C460.609 178.131 460.339 178.432 460.141 178.812C459.947 179.188 459.851 179.602 459.851 180.057V181.08C459.851 181.881 460.064 182.528 460.49 183.023C460.922 183.523 461.504 183.773 462.237 183.773C462.578 183.773 462.882 183.719 463.149 183.611C463.416 183.503 463.641 183.361 463.822 183.185C464.004 183.009 464.135 182.818 464.214 182.614L465.885 182.784C465.697 183.483 465.283 184.054 464.641 184.497C464.004 184.946 463.192 185.17 462.203 185.17Z"
        fill="white" />
    <path d="M463 312L36.0001 312" stroke="#848484" stroke-opacity="0.4" stroke-width="3"
        stroke-linecap="round" stroke-dasharray="10 10" />
    <path
        d="M381.159 303V294.273H382.966V303H381.159ZM382.08 293.08C381.79 293.08 381.54 292.977 381.33 292.773C381.125 292.568 381.023 292.33 381.023 292.057C381.023 291.784 381.125 291.545 381.33 291.341C381.54 291.136 381.79 291.034 382.08 291.034C382.352 291.034 382.591 291.136 382.795 291.341C383 291.545 383.102 291.784 383.102 292.057C383.102 292.347 383 292.591 382.795 292.79C382.591 292.983 382.352 293.08 382.08 293.08ZM387.033 297.75V303H385.227V294.273H386.965V295.773H387.033C387.238 295.278 387.573 294.889 388.039 294.605C388.505 294.315 389.045 294.17 389.658 294.17C390.545 294.17 391.266 294.457 391.823 295.031C392.38 295.605 392.658 296.386 392.658 297.375V303H390.852V297.682C390.852 297.068 390.678 296.585 390.332 296.233C389.991 295.881 389.539 295.705 388.977 295.705C388.414 295.705 387.948 295.889 387.579 296.259C387.215 296.622 387.033 297.119 387.033 297.75ZM394.94 303V294.273H396.747V303H394.94ZM395.861 293.08C395.571 293.08 395.321 292.977 395.111 292.773C394.906 292.568 394.804 292.33 394.804 292.057C394.804 291.784 394.906 291.545 395.111 291.341C395.321 291.136 395.571 291.034 395.861 291.034C396.134 291.034 396.372 291.136 396.577 291.341C396.781 291.545 396.884 291.784 396.884 292.057C396.884 292.347 396.781 292.591 396.577 292.79C396.372 292.983 396.134 293.08 395.861 293.08ZM403.099 294.273V295.67H398.36V294.273H403.099ZM399.587 292.193H401.394V300.545C401.394 300.938 401.496 301.21 401.701 301.364C401.911 301.523 402.161 301.602 402.451 301.602C402.57 301.602 402.675 301.594 402.766 301.577C402.857 301.565 402.945 301.551 403.031 301.534L403.337 302.932C403.201 302.966 403.048 303.003 402.877 303.043C402.707 303.082 402.485 303.102 402.212 303.102C401.445 303.119 400.815 302.938 400.32 302.557C399.832 302.176 399.587 301.585 399.587 300.784V292.193ZM405.065 303V294.273H406.872V303H405.065ZM405.986 293.08C405.696 293.08 405.446 292.977 405.236 292.773C405.031 292.568 404.929 292.33 404.929 292.057C404.929 291.784 405.031 291.545 405.236 291.341C405.446 291.136 405.696 291.034 405.986 291.034C406.259 291.034 406.497 291.136 406.702 291.341C406.906 291.545 407.009 291.784 407.009 292.057C407.009 292.347 406.906 292.591 406.702 292.79C406.497 292.983 406.259 293.08 405.986 293.08ZM411.553 303.17C411.031 303.17 410.553 303.071 410.121 302.872C409.695 302.679 409.354 302.389 409.099 302.003C408.849 301.622 408.724 301.148 408.724 300.58C408.724 300.153 408.8 299.787 408.954 299.48C409.113 299.168 409.337 298.909 409.627 298.705C409.923 298.5 410.269 298.338 410.667 298.219C411.07 298.094 411.513 298.006 411.996 297.955C412.542 297.898 412.974 297.847 413.292 297.801C413.61 297.756 413.837 297.685 413.974 297.588C414.11 297.491 414.178 297.341 414.178 297.136V297C414.178 296.54 414.033 296.182 413.744 295.926C413.454 295.665 413.053 295.534 412.542 295.534C412.065 295.534 411.664 295.642 411.34 295.858C411.016 296.074 410.803 296.352 410.701 296.693L408.996 296.489C409.184 295.79 409.587 295.23 410.207 294.81C410.832 294.384 411.621 294.17 412.576 294.17C413.178 294.17 413.741 294.273 414.263 294.477C414.786 294.676 415.21 294.989 415.533 295.415C415.857 295.835 416.019 296.375 416.019 297.034V303H414.281V301.67H414.212C414.008 302.08 413.684 302.432 413.241 302.727C412.798 303.023 412.235 303.17 411.553 303.17ZM412.031 301.875C412.451 301.875 412.826 301.781 413.156 301.594C413.485 301.406 413.744 301.151 413.931 300.827C414.119 300.503 414.212 300.136 414.212 299.727V298.67C414.121 298.739 413.962 298.807 413.735 298.875C413.513 298.938 413.269 298.994 413.002 299.045C412.741 299.091 412.508 299.125 412.303 299.148C411.638 299.233 411.164 299.389 410.88 299.616C410.602 299.844 410.462 300.153 410.462 300.545C410.462 300.955 410.613 301.278 410.914 301.517C411.215 301.756 411.587 301.875 412.031 301.875ZM420.033 291.375V303H418.227V291.375H420.033ZM429.031 306.273V294.273H430.838V295.943H430.906C431.031 295.648 431.205 295.366 431.426 295.099C431.653 294.827 431.938 294.605 432.278 294.435C432.625 294.259 433.043 294.17 433.531 294.17C434.179 294.17 434.764 294.344 435.287 294.69C435.815 295.037 436.233 295.545 436.54 296.216C436.852 296.886 437.009 297.705 437.009 298.67C437.009 299.591 436.858 300.386 436.557 301.057C436.256 301.733 435.844 302.253 435.321 302.616C434.798 302.986 434.202 303.17 433.531 303.17C433.043 303.17 432.625 303.082 432.278 302.906C431.938 302.736 431.653 302.514 431.426 302.241C431.205 301.974 431.031 301.693 430.906 301.398H430.838V306.273H429.031ZM430.804 298.636C430.804 299.523 430.997 300.25 431.384 300.818C431.77 301.386 432.304 301.67 432.986 301.67C433.452 301.67 433.847 301.537 434.17 301.27C434.494 301.009 434.741 300.648 434.912 300.188C435.082 299.733 435.168 299.216 435.168 298.636C435.168 297.767 434.977 297.051 434.597 296.489C434.222 295.92 433.685 295.636 432.986 295.636C432.531 295.636 432.139 295.764 431.81 296.02C431.486 296.27 431.236 296.622 431.06 297.077C430.889 297.526 430.804 298.045 430.804 298.636ZM438.875 303V294.273H440.648V295.739H440.716C440.886 295.227 441.176 294.838 441.585 294.571C441.994 294.304 442.455 294.17 442.966 294.17C443.205 294.17 443.412 294.196 443.588 294.247C443.77 294.293 443.938 294.358 444.091 294.443L443.545 295.943C443.426 295.892 443.293 295.852 443.145 295.824C442.997 295.79 442.847 295.773 442.693 295.773C442.131 295.773 441.653 295.963 441.261 296.344C440.875 296.724 440.682 297.205 440.682 297.784V303H438.875ZM445.425 303V294.273H447.232V303H445.425ZM446.345 293.08C446.055 293.08 445.805 292.977 445.595 292.773C445.391 292.568 445.288 292.33 445.288 292.057C445.288 291.784 445.391 291.545 445.595 291.341C445.805 291.136 446.055 291.034 446.345 291.034C446.618 291.034 446.857 291.136 447.061 291.341C447.266 291.545 447.368 291.784 447.368 292.057C447.368 292.347 447.266 292.591 447.061 292.79C446.857 292.983 446.618 293.08 446.345 293.08ZM453.174 303.17C452.344 303.17 451.623 302.977 451.009 302.591C450.396 302.205 449.921 301.673 449.586 300.997C449.251 300.321 449.083 299.545 449.083 298.67C449.083 297.795 449.251 297.02 449.586 296.344C449.921 295.668 450.396 295.136 451.009 294.75C451.623 294.364 452.344 294.17 453.174 294.17C454.197 294.17 455.043 294.455 455.714 295.023C456.39 295.585 456.771 296.335 456.856 297.273H455.117C455.049 296.83 454.85 296.44 454.521 296.105C454.191 295.77 453.754 295.602 453.208 295.602C452.765 295.602 452.37 295.727 452.023 295.977C451.683 296.227 451.413 296.58 451.214 297.034C451.021 297.489 450.924 298.023 450.924 298.636C450.924 299.261 451.018 299.804 451.205 300.264C451.398 300.724 451.665 301.08 452.006 301.33C452.353 301.58 452.754 301.705 453.208 301.705C453.651 301.705 454.058 301.565 454.427 301.287C454.802 301.014 455.032 300.597 455.117 300.034H456.856C456.771 300.972 456.398 301.727 455.739 302.301C455.086 302.881 454.231 303.17 453.174 303.17ZM462.453 303.17C461.601 303.17 460.862 302.983 460.237 302.608C459.618 302.233 459.138 301.707 458.797 301.031C458.462 300.355 458.294 299.568 458.294 298.67C458.294 297.784 458.464 297.003 458.805 296.327C459.146 295.651 459.621 295.122 460.229 294.741C460.837 294.361 461.544 294.17 462.351 294.17C463.078 294.17 463.737 294.338 464.328 294.673C464.925 295.003 465.396 295.491 465.743 296.139C466.095 296.781 466.271 297.568 466.271 298.5V299.08H459.078V297.92H464.567C464.567 297.466 464.473 297.062 464.286 296.71C464.098 296.352 463.839 296.074 463.51 295.875C463.18 295.67 462.805 295.568 462.385 295.568C461.942 295.568 461.547 295.682 461.2 295.909C460.859 296.131 460.589 296.432 460.391 296.812C460.197 297.188 460.101 297.602 460.101 298.057V299.08C460.101 299.881 460.314 300.528 460.74 301.023C461.172 301.523 461.754 301.773 462.487 301.773C462.828 301.773 463.132 301.719 463.399 301.611C463.666 301.503 463.891 301.361 464.072 301.185C464.254 301.009 464.385 300.818 464.464 300.614L466.135 300.784C465.947 301.483 465.533 302.054 464.891 302.497C464.254 302.946 463.442 303.17 462.453 303.17Z"
        fill="white" />
    <path d="M463 272L36.0001 272" stroke="#848484" stroke-opacity="0.4" stroke-width="3"
        stroke-linecap="round" stroke-dasharray="10 10" />
    <path
        d="M361.545 263.17C361.023 263.17 360.545 263.071 360.114 262.872C359.688 262.679 359.347 262.389 359.091 262.003C358.841 261.622 358.716 261.148 358.716 260.58C358.716 260.153 358.793 259.787 358.946 259.48C359.105 259.168 359.33 258.909 359.619 258.705C359.915 258.5 360.261 258.338 360.659 258.219C361.063 258.094 361.506 258.006 361.989 257.955C362.534 257.898 362.966 257.847 363.284 257.801C363.602 257.756 363.83 257.685 363.966 257.588C364.102 257.491 364.17 257.341 364.17 257.136V257C364.17 256.54 364.026 256.182 363.736 255.926C363.446 255.665 363.045 255.534 362.534 255.534C362.057 255.534 361.656 255.642 361.332 255.858C361.009 256.074 360.795 256.352 360.693 256.693L358.989 256.489C359.176 255.79 359.58 255.23 360.199 254.81C360.824 254.384 361.614 254.17 362.568 254.17C363.17 254.17 363.733 254.273 364.256 254.477C364.778 254.676 365.202 254.989 365.526 255.415C365.849 255.835 366.011 256.375 366.011 257.034V263H364.273V261.67H364.205C364 262.08 363.676 262.432 363.233 262.727C362.79 263.023 362.227 263.17 361.545 263.17ZM362.023 261.875C362.443 261.875 362.818 261.781 363.148 261.594C363.477 261.406 363.736 261.151 363.923 260.827C364.111 260.503 364.205 260.136 364.205 259.727V258.67C364.114 258.739 363.955 258.807 363.727 258.875C363.506 258.938 363.261 258.994 362.994 259.045C362.733 259.091 362.5 259.125 362.295 259.148C361.631 259.233 361.156 259.389 360.872 259.616C360.594 259.844 360.455 260.153 360.455 260.545C360.455 260.955 360.605 261.278 360.906 261.517C361.207 261.756 361.58 261.875 362.023 261.875ZM375.753 254.273L372.685 263H370.605L367.537 254.273H369.446L371.594 261.091H371.696L373.81 254.273H375.753ZM381.062 263.17C380.21 263.17 379.472 262.983 378.847 262.608C378.227 262.233 377.747 261.707 377.406 261.031C377.071 260.355 376.903 259.568 376.903 258.67C376.903 257.784 377.074 257.003 377.415 256.327C377.756 255.651 378.23 255.122 378.838 254.741C379.446 254.361 380.153 254.17 380.96 254.17C381.688 254.17 382.347 254.338 382.938 254.673C383.534 255.003 384.006 255.491 384.352 256.139C384.705 256.781 384.881 257.568 384.881 258.5V259.08H377.688V257.92H383.176C383.176 257.466 383.082 257.062 382.895 256.71C382.707 256.352 382.449 256.074 382.119 255.875C381.79 255.67 381.415 255.568 380.994 255.568C380.551 255.568 380.156 255.682 379.81 255.909C379.469 256.131 379.199 256.432 379 256.812C378.807 257.188 378.71 257.602 378.71 258.057V259.08C378.71 259.881 378.923 260.528 379.349 261.023C379.781 261.523 380.364 261.773 381.097 261.773C381.438 261.773 381.741 261.719 382.009 261.611C382.276 261.503 382.5 261.361 382.682 261.185C382.864 261.009 382.994 260.818 383.074 260.614L384.744 260.784C384.557 261.483 384.142 262.054 383.5 262.497C382.864 262.946 382.051 263.17 381.062 263.17ZM386.711 263V254.273H388.484V255.739H388.552C388.722 255.227 389.012 254.838 389.421 254.571C389.83 254.304 390.29 254.17 390.802 254.17C391.04 254.17 391.248 254.196 391.424 254.247C391.606 254.293 391.773 254.358 391.927 254.443L391.381 255.943C391.262 255.892 391.129 255.852 390.981 255.824C390.833 255.79 390.683 255.773 390.529 255.773C389.967 255.773 389.489 255.963 389.097 256.344C388.711 256.724 388.518 257.205 388.518 257.784V263H386.711ZM395.647 263.17C395.124 263.17 394.647 263.071 394.215 262.872C393.789 262.679 393.448 262.389 393.192 262.003C392.942 261.622 392.817 261.148 392.817 260.58C392.817 260.153 392.894 259.787 393.048 259.48C393.207 259.168 393.431 258.909 393.721 258.705C394.016 258.5 394.363 258.338 394.761 258.219C395.164 258.094 395.607 258.006 396.09 257.955C396.636 257.898 397.067 257.847 397.386 257.801C397.704 257.756 397.931 257.685 398.067 257.588C398.204 257.491 398.272 257.341 398.272 257.136V257C398.272 256.54 398.127 256.182 397.837 255.926C397.548 255.665 397.147 255.534 396.636 255.534C396.158 255.534 395.758 255.642 395.434 255.858C395.11 256.074 394.897 256.352 394.795 256.693L393.09 256.489C393.278 255.79 393.681 255.23 394.3 254.81C394.925 254.384 395.715 254.17 396.67 254.17C397.272 254.17 397.835 254.273 398.357 254.477C398.88 254.676 399.303 254.989 399.627 255.415C399.951 255.835 400.113 256.375 400.113 257.034V263H398.374V261.67H398.306C398.102 262.08 397.778 262.432 397.335 262.727C396.891 263.023 396.329 263.17 395.647 263.17ZM396.124 261.875C396.545 261.875 396.92 261.781 397.249 261.594C397.579 261.406 397.837 261.151 398.025 260.827C398.212 260.503 398.306 260.136 398.306 259.727V258.67C398.215 258.739 398.056 258.807 397.829 258.875C397.607 258.938 397.363 258.994 397.096 259.045C396.835 259.091 396.602 259.125 396.397 259.148C395.732 259.233 395.258 259.389 394.974 259.616C394.695 259.844 394.556 260.153 394.556 260.545C394.556 260.955 394.707 261.278 395.008 261.517C395.309 261.756 395.681 261.875 396.124 261.875ZM405.968 266.409C404.928 266.409 404.09 266.205 403.454 265.795C402.823 265.386 402.423 264.875 402.252 264.261L403.923 263.955C404.059 264.278 404.303 264.545 404.656 264.756C405.008 264.972 405.457 265.08 406.002 265.08C406.633 265.08 407.147 264.92 407.545 264.602C407.948 264.284 408.15 263.784 408.15 263.102V261.295H408.048C407.934 261.591 407.761 261.858 407.528 262.097C407.295 262.341 407.005 262.534 406.658 262.676C406.312 262.824 405.911 262.898 405.457 262.898C404.798 262.898 404.201 262.736 403.667 262.412C403.138 262.094 402.718 261.616 402.406 260.98C402.099 260.349 401.945 259.568 401.945 258.636C401.945 257.693 402.099 256.889 402.406 256.224C402.718 255.56 403.138 255.051 403.667 254.699C404.201 254.347 404.798 254.17 405.457 254.17C405.934 254.17 406.343 254.259 406.684 254.435C407.031 254.605 407.315 254.827 407.536 255.099C407.763 255.366 407.934 255.648 408.048 255.943H408.15V254.273H409.957V263.136C409.957 263.852 409.786 264.452 409.445 264.935C409.11 265.423 408.641 265.79 408.039 266.034C407.442 266.284 406.752 266.409 405.968 266.409ZM405.968 261.5C406.65 261.5 407.184 261.244 407.57 260.733C407.957 260.222 408.15 259.523 408.15 258.636C408.15 257.767 407.96 257.051 407.579 256.489C407.204 255.92 406.667 255.636 405.968 255.636C405.502 255.636 405.107 255.77 404.783 256.037C404.46 256.298 404.212 256.656 404.042 257.111C403.871 257.56 403.786 258.068 403.786 258.636C403.786 259.506 403.979 260.199 404.366 260.716C404.752 261.239 405.286 261.5 405.968 261.5ZM415.984 263.17C415.132 263.17 414.393 262.983 413.768 262.608C413.149 262.233 412.669 261.707 412.328 261.031C411.993 260.355 411.825 259.568 411.825 258.67C411.825 257.784 411.996 257.003 412.337 256.327C412.678 255.651 413.152 255.122 413.76 254.741C414.368 254.361 415.075 254.17 415.882 254.17C416.609 254.17 417.268 254.338 417.859 254.673C418.456 255.003 418.928 255.491 419.274 256.139C419.626 256.781 419.803 257.568 419.803 258.5V259.08H412.609V257.92H418.098C418.098 257.466 418.004 257.062 417.817 256.71C417.629 256.352 417.371 256.074 417.041 255.875C416.712 255.67 416.337 255.568 415.916 255.568C415.473 255.568 415.078 255.682 414.732 255.909C414.391 256.131 414.121 256.432 413.922 256.812C413.729 257.188 413.632 257.602 413.632 258.057V259.08C413.632 259.881 413.845 260.528 414.271 261.023C414.703 261.523 415.286 261.773 416.018 261.773C416.359 261.773 416.663 261.719 416.93 261.611C417.197 261.503 417.422 261.361 417.604 261.185C417.786 261.009 417.916 260.818 417.996 260.614L419.666 260.784C419.479 261.483 419.064 262.054 418.422 262.497C417.786 262.946 416.973 263.17 415.984 263.17ZM428.383 266.273V254.273H430.19V255.943H430.258C430.383 255.648 430.556 255.366 430.778 255.099C431.005 254.827 431.289 254.605 431.63 254.435C431.977 254.259 432.394 254.17 432.883 254.17C433.531 254.17 434.116 254.344 434.638 254.69C435.167 255.037 435.585 255.545 435.891 256.216C436.204 256.886 436.36 257.705 436.36 258.67C436.36 259.591 436.21 260.386 435.908 261.057C435.607 261.733 435.195 262.253 434.673 262.616C434.15 262.986 433.553 263.17 432.883 263.17C432.394 263.17 431.977 263.082 431.63 262.906C431.289 262.736 431.005 262.514 430.778 262.241C430.556 261.974 430.383 261.693 430.258 261.398H430.19V266.273H428.383ZM430.156 258.636C430.156 259.523 430.349 260.25 430.735 260.818C431.121 261.386 431.656 261.67 432.337 261.67C432.803 261.67 433.198 261.537 433.522 261.27C433.846 261.009 434.093 260.648 434.263 260.188C434.434 259.733 434.519 259.216 434.519 258.636C434.519 257.767 434.329 257.051 433.948 256.489C433.573 255.92 433.036 255.636 432.337 255.636C431.883 255.636 431.491 255.764 431.161 256.02C430.837 256.27 430.587 256.622 430.411 257.077C430.241 257.526 430.156 258.045 430.156 258.636ZM438.227 263V254.273H439.999V255.739H440.067C440.238 255.227 440.528 254.838 440.937 254.571C441.346 254.304 441.806 254.17 442.317 254.17C442.556 254.17 442.763 254.196 442.94 254.247C443.121 254.293 443.289 254.358 443.442 254.443L442.897 255.943C442.778 255.892 442.644 255.852 442.496 255.824C442.349 255.79 442.198 255.773 442.045 255.773C441.482 255.773 441.005 255.963 440.613 256.344C440.227 256.724 440.033 257.205 440.033 257.784V263H438.227ZM444.776 263V254.273H446.583V263H444.776ZM445.697 253.08C445.407 253.08 445.157 252.977 444.947 252.773C444.742 252.568 444.64 252.33 444.64 252.057C444.64 251.784 444.742 251.545 444.947 251.341C445.157 251.136 445.407 251.034 445.697 251.034C445.969 251.034 446.208 251.136 446.413 251.341C446.617 251.545 446.719 251.784 446.719 252.057C446.719 252.347 446.617 252.591 446.413 252.79C446.208 252.983 445.969 253.08 445.697 253.08ZM452.526 263.17C451.696 263.17 450.974 262.977 450.361 262.591C449.747 262.205 449.273 261.673 448.938 260.997C448.602 260.321 448.435 259.545 448.435 258.67C448.435 257.795 448.602 257.02 448.938 256.344C449.273 255.668 449.747 255.136 450.361 254.75C450.974 254.364 451.696 254.17 452.526 254.17C453.548 254.17 454.395 254.455 455.065 255.023C455.741 255.585 456.122 256.335 456.207 257.273H454.469C454.401 256.83 454.202 256.44 453.872 256.105C453.543 255.77 453.105 255.602 452.56 255.602C452.116 255.602 451.722 255.727 451.375 255.977C451.034 256.227 450.764 256.58 450.565 257.034C450.372 257.489 450.276 258.023 450.276 258.636C450.276 259.261 450.369 259.804 450.557 260.264C450.75 260.724 451.017 261.08 451.358 261.33C451.705 261.58 452.105 261.705 452.56 261.705C453.003 261.705 453.409 261.565 453.778 261.287C454.153 261.014 454.384 260.597 454.469 260.034H456.207C456.122 260.972 455.75 261.727 455.091 262.301C454.438 262.881 453.582 263.17 452.526 263.17ZM461.805 263.17C460.952 263.17 460.214 262.983 459.589 262.608C458.969 262.233 458.489 261.707 458.148 261.031C457.813 260.355 457.646 259.568 457.646 258.67C457.646 257.784 457.816 257.003 458.157 256.327C458.498 255.651 458.972 255.122 459.58 254.741C460.188 254.361 460.896 254.17 461.702 254.17C462.43 254.17 463.089 254.338 463.68 254.673C464.276 255.003 464.748 255.491 465.094 256.139C465.447 256.781 465.623 257.568 465.623 258.5V259.08H458.43V257.92H463.918C463.918 257.466 463.825 257.062 463.637 256.71C463.45 256.352 463.191 256.074 462.862 255.875C462.532 255.67 462.157 255.568 461.737 255.568C461.293 255.568 460.898 255.682 460.552 255.909C460.211 256.131 459.941 256.432 459.742 256.812C459.549 257.188 459.452 257.602 459.452 258.057V259.08C459.452 259.881 459.665 260.528 460.092 261.023C460.523 261.523 461.106 261.773 461.839 261.773C462.18 261.773 462.484 261.719 462.751 261.611C463.018 261.503 463.242 261.361 463.424 261.185C463.606 261.009 463.737 260.818 463.816 260.614L465.487 260.784C465.299 261.483 464.884 262.054 464.242 262.497C463.606 262.946 462.793 263.17 461.805 263.17Z"
        fill="white" />
</svg>