<svg viewBox="0 0 506 393" fill="none" xmlns="http://www.w3.org/2000/svg">
<path d="M2.4078 27.9091V9.90909H4.35099V11.9886H4.58962C4.73735 11.7614 4.94189 11.4716 5.20326 11.1193C5.4703 10.7614 5.85099 10.4432 6.3453 10.1648C6.8453 9.88068 7.52144 9.73864 8.37371 9.73864C9.47599 9.73864 10.4476 10.0142 11.2885 10.5653C12.1294 11.1165 12.7856 11.8977 13.2572 12.9091C13.7288 13.9205 13.9646 15.1136 13.9646 16.4886C13.9646 17.875 13.7288 19.0767 13.2572 20.0938C12.7856 21.1051 12.1322 21.8892 11.297 22.446C10.4618 22.9972 9.49871 23.2727 8.4078 23.2727C7.5669 23.2727 6.8936 23.1335 6.38792 22.8551C5.88224 22.571 5.49303 22.25 5.2203 21.892C4.94758 21.5284 4.73735 21.2273 4.58962 20.9886H4.41917V27.9091H2.4078ZM4.38508 16.4545C4.38508 17.4432 4.52996 18.3153 4.81974 19.071C5.10951 19.821 5.5328 20.4091 6.08962 20.8352C6.64644 21.2557 7.32826 21.4659 8.13508 21.4659C8.97599 21.4659 9.67769 21.2443 10.2402 20.8011C10.8084 20.3523 11.2345 19.75 11.5186 18.9943C11.8084 18.233 11.9533 17.3864 11.9533 16.4545C11.9533 15.5341 11.8112 14.7045 11.5271 13.9659C11.2487 13.2216 10.8254 12.6335 10.2572 12.2017C9.69474 11.7642 8.98735 11.5455 8.13508 11.5455C7.31689 11.5455 6.62939 11.7528 6.07258 12.1676C5.51576 12.5767 5.0953 13.1506 4.81121 13.8892C4.52712 14.6222 4.38508 15.4773 4.38508 16.4545Z" fill="white"/>
<path d="M503.704 364.581L501.897 365.093C501.784 364.792 501.616 364.499 501.395 364.215C501.179 363.925 500.883 363.687 500.508 363.499C500.133 363.312 499.653 363.218 499.068 363.218C498.267 363.218 497.599 363.402 497.065 363.772C496.537 364.135 496.272 364.598 496.272 365.161C496.272 365.661 496.454 366.056 496.818 366.346C497.181 366.635 497.75 366.877 498.522 367.07L500.466 367.547C501.636 367.831 502.508 368.266 503.082 368.851C503.656 369.431 503.943 370.178 503.943 371.093C503.943 371.843 503.727 372.513 503.295 373.104C502.869 373.695 502.272 374.161 501.505 374.502C500.738 374.843 499.846 375.013 498.829 375.013C497.494 375.013 496.389 374.723 495.514 374.144C494.639 373.564 494.085 372.718 493.852 371.604L495.761 371.127C495.943 371.831 496.287 372.36 496.792 372.712C497.304 373.064 497.971 373.24 498.795 373.24C499.733 373.24 500.477 373.042 501.028 372.644C501.585 372.24 501.863 371.758 501.863 371.195C501.863 370.74 501.704 370.36 501.386 370.053C501.068 369.74 500.579 369.508 499.92 369.354L497.738 368.843C496.539 368.559 495.659 368.118 495.096 367.522C494.539 366.919 494.261 366.167 494.261 365.263C494.261 364.525 494.468 363.871 494.883 363.303C495.304 362.735 495.875 362.289 496.596 361.965C497.324 361.641 498.147 361.479 499.068 361.479C500.363 361.479 501.38 361.763 502.119 362.331C502.863 362.9 503.392 363.65 503.704 364.581Z" fill="white"/>
<path d="M280.102 12.3779L280.102 363.087" stroke="#295EFF" stroke-opacity="0.4" stroke-width="3" stroke-linecap="round" stroke-dasharray="10 10"/>
<path d="M280.114 375.841L278.307 376.352C278.193 376.051 278.026 375.759 277.804 375.474C277.588 375.185 277.293 374.946 276.918 374.759C276.543 374.571 276.062 374.477 275.477 374.477C274.676 374.477 274.009 374.662 273.474 375.031C272.946 375.395 272.682 375.858 272.682 376.42C272.682 376.92 272.864 377.315 273.227 377.605C273.591 377.895 274.159 378.136 274.932 378.33L276.875 378.807C278.045 379.091 278.918 379.526 279.491 380.111C280.065 380.69 280.352 381.437 280.352 382.352C280.352 383.102 280.136 383.773 279.705 384.364C279.278 384.955 278.682 385.42 277.915 385.761C277.148 386.102 276.256 386.273 275.239 386.273C273.903 386.273 272.798 385.983 271.923 385.403C271.048 384.824 270.494 383.977 270.261 382.864L272.17 382.386C272.352 383.091 272.696 383.619 273.202 383.972C273.713 384.324 274.381 384.5 275.205 384.5C276.142 384.5 276.886 384.301 277.438 383.903C277.994 383.5 278.273 383.017 278.273 382.455C278.273 382 278.114 381.619 277.795 381.312C277.477 381 276.989 380.767 276.33 380.614L274.148 380.102C272.949 379.818 272.068 379.378 271.506 378.781C270.949 378.179 270.67 377.426 270.67 376.523C270.67 375.784 270.878 375.131 271.293 374.562C271.713 373.994 272.284 373.548 273.006 373.224C273.733 372.901 274.557 372.739 275.477 372.739C276.773 372.739 277.79 373.023 278.528 373.591C279.273 374.159 279.801 374.909 280.114 375.841ZM286.823 389.205C285.46 389.205 284.391 388.722 283.619 387.756C282.846 386.795 282.46 385.472 282.46 383.784C282.46 382.097 282.846 380.778 283.619 379.83C284.391 378.875 285.46 378.398 286.823 378.398C288.17 378.398 289.232 378.869 290.011 379.812C290.795 380.756 291.187 382.08 291.187 383.784C291.187 385.489 290.795 386.818 290.011 387.773C289.232 388.727 288.17 389.205 286.823 389.205ZM286.823 387.67C287.573 387.67 288.175 387.341 288.63 386.682C289.085 386.028 289.312 385.062 289.312 383.784C289.312 382.506 289.085 381.54 288.63 380.886C288.175 380.227 287.573 379.898 286.823 379.898C286.073 379.898 285.471 380.227 285.016 380.886C284.562 381.54 284.335 382.506 284.335 383.784C284.335 385.045 284.556 386.009 284.999 386.673C285.448 387.338 286.056 387.67 286.823 387.67Z" fill="#295EFF"/>
<path d="M274 14.0002C274.782 70.9026 274 242.498 34.0912 234.15" stroke="#295EFF" stroke-width="5" stroke-linecap="round"/>
<path d="M33.5747 12.3779L33.5747 349.677" stroke="white" stroke-width="5" stroke-linecap="round"/>
<path d="M33.5747 12.3779L33.5747 349.677" stroke="white" stroke-width="5" stroke-linecap="round"/>
<path d="M482.276 352.772L33.5749 352.772" stroke="white" stroke-width="5" stroke-linecap="round"/>
<path d="M34.6246 9.28337L42.8398 23.7243" stroke="white" stroke-width="5" stroke-linecap="round"/>
<path d="M33.5563 9.28337L25.3411 23.7243" stroke="white" stroke-width="5" stroke-linecap="round"/>
<path d="M482.275 352.79L467.835 361.006" stroke="white" stroke-width="5" stroke-linecap="round"/>
<path d="M482.275 351.722L467.835 343.507" stroke="white" stroke-width="5" stroke-linecap="round"/>
</svg>
