<svg viewBox="0 0 480 396" fill="none" xmlns="http://www.w3.org/2000/svg">
<path d="M22.5356 14L30.5 28" stroke="white" stroke-width="5" stroke-linecap="round"/>
<path d="M21.5 14L13.5356 28" stroke="white" stroke-width="5" stroke-linecap="round"/>
<path d="M1.84091 23V9.90909H3.78409V11.8864H3.92045C4.15909 11.2386 4.59091 10.7131 5.21591 10.3097C5.84091 9.90625 6.54545 9.70454 7.32955 9.70454C7.47727 9.70454 7.66193 9.70739 7.88352 9.71307C8.10511 9.71875 8.27273 9.72727 8.38636 9.73864V11.7841C8.31818 11.767 8.16193 11.7415 7.91761 11.7074C7.67898 11.6676 7.42614 11.6477 7.15909 11.6477C6.52273 11.6477 5.95455 11.7812 5.45455 12.0483C4.96023 12.3097 4.56818 12.6733 4.27841 13.1392C3.99432 13.5994 3.85227 14.125 3.85227 14.7159V23H1.84091Z" fill="white"/>
<path d="M478.114 354.841L476.307 355.352C476.193 355.051 476.026 354.759 475.804 354.474C475.588 354.185 475.293 353.946 474.918 353.759C474.543 353.571 474.062 353.477 473.477 353.477C472.676 353.477 472.009 353.662 471.474 354.031C470.946 354.395 470.682 354.858 470.682 355.42C470.682 355.92 470.864 356.315 471.227 356.605C471.591 356.895 472.159 357.136 472.932 357.33L474.875 357.807C476.045 358.091 476.918 358.526 477.491 359.111C478.065 359.69 478.352 360.437 478.352 361.352C478.352 362.102 478.136 362.773 477.705 363.364C477.278 363.955 476.682 364.42 475.915 364.761C475.148 365.102 474.256 365.273 473.239 365.273C471.903 365.273 470.798 364.983 469.923 364.403C469.048 363.824 468.494 362.977 468.261 361.864L470.17 361.386C470.352 362.091 470.696 362.619 471.202 362.972C471.713 363.324 472.381 363.5 473.205 363.5C474.142 363.5 474.886 363.301 475.438 362.903C475.994 362.5 476.273 362.017 476.273 361.455C476.273 361 476.114 360.619 475.795 360.312C475.477 360 474.989 359.767 474.33 359.614L472.148 359.102C470.949 358.818 470.068 358.378 469.506 357.781C468.949 357.179 468.67 356.426 468.67 355.523C468.67 354.784 468.878 354.131 469.293 353.562C469.713 352.994 470.284 352.548 471.006 352.224C471.733 351.901 472.557 351.739 473.477 351.739C474.773 351.739 475.79 352.023 476.528 352.591C477.273 353.159 477.801 353.909 478.114 354.841Z" fill="white"/>
<path d="M261 13L261 353" stroke="#295EFF" stroke-opacity="0.4" stroke-width="3" stroke-linecap="round" stroke-dasharray="10 10"/>
<path d="M260.114 365.841L258.307 366.352C258.193 366.051 258.026 365.759 257.804 365.474C257.588 365.185 257.293 364.946 256.918 364.759C256.543 364.571 256.062 364.477 255.477 364.477C254.676 364.477 254.009 364.662 253.474 365.031C252.946 365.395 252.682 365.858 252.682 366.42C252.682 366.92 252.864 367.315 253.227 367.605C253.591 367.895 254.159 368.136 254.932 368.33L256.875 368.807C258.045 369.091 258.918 369.526 259.491 370.111C260.065 370.69 260.352 371.437 260.352 372.352C260.352 373.102 260.136 373.773 259.705 374.364C259.278 374.955 258.682 375.42 257.915 375.761C257.148 376.102 256.256 376.273 255.239 376.273C253.903 376.273 252.798 375.983 251.923 375.403C251.048 374.824 250.494 373.977 250.261 372.864L252.17 372.386C252.352 373.091 252.696 373.619 253.202 373.972C253.713 374.324 254.381 374.5 255.205 374.5C256.142 374.5 256.886 374.301 257.438 373.903C257.994 373.5 258.273 373.017 258.273 372.455C258.273 372 258.114 371.619 257.795 371.312C257.477 371 256.989 370.767 256.33 370.614L254.148 370.102C252.949 369.818 252.068 369.378 251.506 368.781C250.949 368.179 250.67 367.426 250.67 366.523C250.67 365.784 250.878 365.131 251.293 364.562C251.713 363.994 252.284 363.548 253.006 363.224C253.733 362.901 254.557 362.739 255.477 362.739C256.773 362.739 257.79 363.023 258.528 363.591C259.273 364.159 259.801 364.909 260.114 365.841ZM266.823 379.205C265.46 379.205 264.391 378.722 263.619 377.756C262.846 376.795 262.46 375.472 262.46 373.784C262.46 372.097 262.846 370.778 263.619 369.83C264.391 368.875 265.46 368.398 266.823 368.398C268.17 368.398 269.232 368.869 270.011 369.812C270.795 370.756 271.187 372.08 271.187 373.784C271.187 375.489 270.795 376.818 270.011 377.773C269.232 378.727 268.17 379.205 266.823 379.205ZM266.823 377.67C267.573 377.67 268.175 377.341 268.63 376.682C269.085 376.028 269.312 375.062 269.312 373.784C269.312 372.506 269.085 371.54 268.63 370.886C268.175 370.227 267.573 369.898 266.823 369.898C266.073 369.898 265.471 370.227 265.016 370.886C264.562 371.54 264.335 372.506 264.335 373.784C264.335 375.045 264.556 376.009 264.999 376.673C265.448 377.338 266.056 377.67 266.823 377.67Z" fill="#295EFF"/>
<path d="M255.999 13.4999C256.882 188.547 245.6 289.676 24.9982 342" stroke="#295EFF" stroke-width="5" stroke-linecap="round"/>
<path d="M22 15L22 342" stroke="white" stroke-width="5" stroke-linecap="round"/>
<path d="M457 345L22 345" stroke="white" stroke-width="5" stroke-linecap="round"/>
<path d="M457 346.018L443 353.982" stroke="white" stroke-width="5" stroke-linecap="round"/>
<path d="M457 344.982L443 337.018" stroke="white" stroke-width="5" stroke-linecap="round"/>
</svg>
