<svg viewBox="0 0 581 556" fill="none" xmlns="http://www.w3.org/2000/svg">
<path d="M67.8999 92.8396C124.5 411.264 287.5 419.764 511 424.176" stroke="#295EFF" stroke-width="5" stroke-linecap="round"/>
<path d="M19.8295 83.3091L25.0114 98.0023H25.2159L30.3977 83.3091H32.6136L26.2045 100.764H24.0227L17.6136 83.3091H19.8295ZM35.3324 100.764V83.3091H41.2301C42.5994 83.3091 43.7188 83.5563 44.5881 84.0506C45.4631 84.5392 46.1108 85.2012 46.5312 86.0364C46.9517 86.8716 47.1619 87.8034 47.1619 88.8319C47.1619 89.8603 46.9517 90.7949 46.5312 91.6358C46.1165 92.4767 45.4744 93.1472 44.6051 93.6472C43.7358 94.1415 42.6222 94.3887 41.2642 94.3887H37.0369V92.5137H41.196C42.1335 92.5137 42.8864 92.3517 43.4545 92.0279C44.0227 91.704 44.4347 91.2665 44.6903 90.7154C44.9517 90.1586 45.0824 89.5307 45.0824 88.8319C45.0824 88.133 44.9517 87.508 44.6903 86.9569C44.4347 86.4057 44.0199 85.9739 43.446 85.6614C42.8722 85.3432 42.1108 85.1841 41.1619 85.1841H37.446V100.764H35.3324Z" fill="white"/>
<path d="M180 89.1416L180 439.85" stroke="#295EFF" stroke-opacity="0.4" stroke-width="3" stroke-linecap="round" stroke-dasharray="10 10"/>
<path d="M541 258.764L58 258.764" stroke="#295EFF" stroke-opacity="0.4" stroke-width="3" stroke-linecap="round" stroke-dasharray="10 10"/>
<path d="M541 343.764L58 343.764" stroke="#295EFF" stroke-opacity="0.4" stroke-width="3" stroke-linecap="round" stroke-dasharray="10 10"/>
<path d="M541 405.764L58 405.764" stroke="#295EFF" stroke-opacity="0.4" stroke-width="3" stroke-linecap="round" stroke-dasharray="10 10"/>
<path d="M121 89.1416L121 439.85" stroke="#295EFF" stroke-opacity="0.4" stroke-width="3" stroke-linecap="round" stroke-dasharray="10 10"/>
<path d="M290 89.1416L290 439.85" stroke="#295EFF" stroke-opacity="0.4" stroke-width="3" stroke-linecap="round" stroke-dasharray="10 10"/>
<path d="M510 88.7637L510 439.472" stroke="#295EFF" stroke-opacity="0.4" stroke-width="3" stroke-linecap="round" stroke-dasharray="10 10"/>
<path d="M400 89.7637L400 440.472" stroke="#295EFF" stroke-opacity="0.4" stroke-width="3" stroke-linecap="round" stroke-dasharray="10 10"/>
<path d="M53.5341 434.673V436.378H46.75V434.673H53.5341ZM48.7273 431.537H50.7386V444.014C50.7386 444.582 50.821 445.008 50.9858 445.293C51.1563 445.571 51.3722 445.758 51.6335 445.855C51.9006 445.946 52.1818 445.991 52.4773 445.991C52.6989 445.991 52.8807 445.98 53.0227 445.957C53.1648 445.929 53.2784 445.906 53.3636 445.889L53.7727 447.696C53.6364 447.747 53.446 447.798 53.2017 447.849C52.9574 447.906 52.6477 447.935 52.2727 447.935C51.7045 447.935 51.1477 447.812 50.6023 447.568C50.0625 447.324 49.6136 446.952 49.2557 446.452C48.9034 445.952 48.7273 445.321 48.7273 444.56V431.537ZM60.0028 450.969C58.6392 450.969 57.571 450.486 56.7983 449.52C56.0256 448.56 55.6392 447.236 55.6392 445.548C55.6392 443.861 56.0256 442.543 56.7983 441.594C57.571 440.639 58.6392 440.162 60.0028 440.162C61.3494 440.162 62.4119 440.633 63.1903 441.577C63.9744 442.52 64.3665 443.844 64.3665 445.548C64.3665 447.253 63.9744 448.582 63.1903 449.537C62.4119 450.491 61.3494 450.969 60.0028 450.969ZM60.0028 449.435C60.7528 449.435 61.3551 449.105 61.8097 448.446C62.2642 447.793 62.4915 446.827 62.4915 445.548C62.4915 444.27 62.2642 443.304 61.8097 442.651C61.3551 441.991 60.7528 441.662 60.0028 441.662C59.2528 441.662 58.6506 441.991 58.196 442.651C57.7415 443.304 57.5142 444.27 57.5142 445.548C57.5142 446.81 57.7358 447.773 58.179 448.437C58.6278 449.102 59.2358 449.435 60.0028 449.435Z" fill="white"/>
<path d="M559.534 434.673V436.378H552.75V434.673H559.534ZM554.727 431.537H556.739V444.014C556.739 444.582 556.821 445.008 556.986 445.293C557.156 445.571 557.372 445.758 557.634 445.855C557.901 445.946 558.182 445.991 558.477 445.991C558.699 445.991 558.881 445.98 559.023 445.957C559.165 445.929 559.278 445.906 559.364 445.889L559.773 447.696C559.636 447.747 559.446 447.798 559.202 447.849C558.957 447.906 558.648 447.935 558.273 447.935C557.705 447.935 557.148 447.812 556.602 447.568C556.063 447.324 555.614 446.952 555.256 446.452C554.903 445.952 554.727 445.321 554.727 444.56V431.537Z" fill="white"/>
<path d="M265.054 454.764V453.869L268.415 450.19C268.809 449.759 269.134 449.384 269.389 449.066C269.644 448.745 269.833 448.443 269.956 448.161C270.082 447.876 270.145 447.578 270.145 447.267C270.145 446.909 270.059 446.599 269.886 446.337C269.717 446.075 269.485 445.873 269.19 445.73C268.895 445.588 268.564 445.517 268.196 445.517C267.805 445.517 267.464 445.598 267.172 445.76C266.884 445.919 266.66 446.143 266.501 446.431C266.345 446.72 266.267 447.058 266.267 447.445H265.094C265.094 446.849 265.231 446.325 265.506 445.874C265.781 445.424 266.156 445.072 266.63 444.82C267.107 444.569 267.643 444.443 268.236 444.443C268.832 444.443 269.361 444.569 269.822 444.82C270.282 445.072 270.644 445.412 270.906 445.84C271.167 446.267 271.298 446.743 271.298 447.267C271.298 447.641 271.23 448.007 271.094 448.365C270.962 448.72 270.73 449.116 270.398 449.553C270.07 449.988 269.615 450.518 269.031 451.144L266.744 453.59V453.67H271.477V454.764H265.054ZM278.244 457.627C278.045 457.627 277.867 457.611 277.712 457.578C277.556 457.548 277.448 457.518 277.388 457.488L277.687 456.454C277.972 456.527 278.224 456.553 278.442 456.534C278.661 456.514 278.855 456.416 279.024 456.24C279.196 456.068 279.354 455.788 279.496 455.4L279.715 454.803L276.891 447.127H278.164L280.272 453.213H280.352L282.46 447.127H283.732L280.491 455.877C280.345 456.272 280.164 456.598 279.949 456.857C279.733 457.119 279.483 457.312 279.198 457.438C278.916 457.564 278.598 457.627 278.244 457.627ZM288.209 454.923C287.473 454.923 286.839 454.76 286.305 454.436C285.775 454.107 285.365 453.65 285.077 453.063C284.792 452.473 284.65 451.787 284.65 451.005C284.65 450.223 284.792 449.534 285.077 448.937C285.365 448.337 285.766 447.87 286.28 447.535C286.797 447.197 287.4 447.028 288.09 447.028C288.488 447.028 288.88 447.094 289.268 447.227C289.656 447.359 290.009 447.575 290.327 447.873C290.645 448.168 290.899 448.559 291.088 449.046C291.277 449.534 291.371 450.133 291.371 450.846V451.343H285.485V450.329H290.178C290.178 449.898 290.092 449.514 289.919 449.176C289.75 448.838 289.508 448.571 289.194 448.375C288.882 448.18 288.514 448.082 288.09 448.082C287.623 448.082 287.218 448.198 286.877 448.43C286.539 448.659 286.279 448.957 286.096 449.325C285.914 449.693 285.823 450.087 285.823 450.508V451.184C285.823 451.761 285.922 452.25 286.121 452.651C286.323 453.048 286.603 453.352 286.961 453.561C287.319 453.766 287.735 453.869 288.209 453.869C288.517 453.869 288.796 453.826 289.044 453.74C289.296 453.65 289.513 453.517 289.696 453.342C289.878 453.163 290.019 452.941 290.118 452.676L291.252 452.994C291.132 453.378 290.932 453.716 290.65 454.008C290.368 454.296 290.02 454.522 289.606 454.684C289.192 454.843 288.726 454.923 288.209 454.923ZM295.403 454.943C294.919 454.943 294.48 454.852 294.086 454.669C293.691 454.484 293.378 454.217 293.146 453.869C292.914 453.517 292.798 453.093 292.798 452.596C292.798 452.159 292.884 451.804 293.056 451.532C293.229 451.257 293.459 451.042 293.748 450.886C294.036 450.73 294.354 450.614 294.702 450.538C295.053 450.458 295.406 450.395 295.761 450.349C296.225 450.289 296.601 450.244 296.89 450.215C297.181 450.182 297.393 450.127 297.526 450.051C297.662 449.974 297.73 449.842 297.73 449.653V449.613C297.73 449.123 297.596 448.741 297.327 448.47C297.062 448.198 296.659 448.062 296.119 448.062C295.559 448.062 295.12 448.185 294.801 448.43C294.483 448.675 294.26 448.937 294.13 449.215L293.017 448.818C293.216 448.354 293.481 447.992 293.812 447.734C294.147 447.472 294.511 447.29 294.906 447.187C295.304 447.081 295.695 447.028 296.079 447.028C296.324 447.028 296.606 447.058 296.924 447.117C297.246 447.174 297.556 447.291 297.854 447.47C298.156 447.649 298.406 447.919 298.605 448.281C298.804 448.642 298.903 449.126 298.903 449.732V454.764H297.73V453.73H297.67C297.591 453.895 297.458 454.073 297.272 454.262C297.087 454.45 296.84 454.611 296.532 454.744C296.223 454.876 295.847 454.943 295.403 454.943ZM295.582 453.889C296.046 453.889 296.437 453.798 296.755 453.615C297.077 453.433 297.319 453.198 297.481 452.909C297.647 452.621 297.73 452.318 297.73 451.999V450.926C297.68 450.985 297.571 451.04 297.402 451.09C297.236 451.136 297.044 451.177 296.825 451.214C296.609 451.247 296.399 451.277 296.194 451.303C295.991 451.327 295.827 451.347 295.701 451.363C295.396 451.403 295.111 451.468 294.846 451.557C294.584 451.643 294.372 451.774 294.21 451.95C294.051 452.122 293.971 452.357 293.971 452.656C293.971 453.063 294.122 453.372 294.424 453.58C294.729 453.786 295.115 453.889 295.582 453.889ZM301.045 454.764V447.127H302.178V448.281H302.258C302.397 447.903 302.649 447.596 303.013 447.361C303.378 447.126 303.789 447.008 304.246 447.008C304.332 447.008 304.44 447.01 304.569 447.013C304.699 447.016 304.796 447.021 304.863 447.028V448.221C304.823 448.211 304.732 448.196 304.589 448.176C304.45 448.153 304.303 448.142 304.147 448.142C303.776 448.142 303.444 448.219 303.153 448.375C302.864 448.528 302.635 448.74 302.466 449.012C302.301 449.28 302.218 449.587 302.218 449.931V454.764H301.045ZM311.663 448.838L310.609 449.136C310.542 448.96 310.445 448.789 310.315 448.624C310.189 448.455 310.017 448.316 309.798 448.206C309.58 448.097 309.299 448.042 308.958 448.042C308.491 448.042 308.101 448.15 307.79 448.365C307.482 448.577 307.327 448.847 307.327 449.176C307.327 449.467 307.433 449.698 307.646 449.867C307.858 450.036 308.189 450.177 308.64 450.289L309.773 450.568C310.456 450.733 310.965 450.987 311.3 451.328C311.634 451.666 311.802 452.102 311.802 452.636C311.802 453.073 311.676 453.464 311.424 453.809C311.175 454.154 310.827 454.426 310.38 454.624C309.933 454.823 309.412 454.923 308.819 454.923C308.04 454.923 307.395 454.754 306.885 454.416C306.375 454.078 306.051 453.584 305.915 452.934L307.029 452.656C307.135 453.067 307.336 453.375 307.631 453.58C307.929 453.786 308.318 453.889 308.799 453.889C309.346 453.889 309.78 453.773 310.102 453.541C310.426 453.305 310.589 453.024 310.589 452.695C310.589 452.43 310.496 452.208 310.31 452.029C310.125 451.847 309.84 451.711 309.455 451.622L308.183 451.323C307.483 451.158 306.969 450.901 306.641 450.553C306.317 450.201 306.154 449.762 306.154 449.235C306.154 448.804 306.275 448.423 306.517 448.092C306.762 447.76 307.095 447.5 307.516 447.311C307.941 447.122 308.421 447.028 308.958 447.028C309.714 447.028 310.307 447.194 310.738 447.525C311.172 447.856 311.48 448.294 311.663 448.838Z" fill="white"/>
<path d="M367.494 454.903C366.838 454.903 366.253 454.79 365.739 454.565C365.229 454.339 364.823 454.026 364.521 453.625C364.223 453.221 364.061 452.752 364.034 452.218H365.287C365.313 452.546 365.426 452.83 365.625 453.068C365.824 453.304 366.084 453.486 366.406 453.615C366.727 453.744 367.083 453.809 367.474 453.809C367.912 453.809 368.3 453.733 368.638 453.58C368.976 453.428 369.241 453.216 369.433 452.944C369.625 452.672 369.722 452.357 369.722 451.999C369.722 451.625 369.629 451.295 369.443 451.01C369.258 450.722 368.986 450.496 368.628 450.334C368.27 450.172 367.832 450.09 367.315 450.09H366.5V448.997H367.315C367.72 448.997 368.074 448.924 368.379 448.778C368.688 448.632 368.928 448.427 369.1 448.161C369.276 447.896 369.364 447.585 369.364 447.227C369.364 446.882 369.287 446.582 369.135 446.327C368.982 446.072 368.767 445.873 368.489 445.73C368.214 445.588 367.889 445.517 367.514 445.517C367.163 445.517 366.831 445.581 366.52 445.71C366.212 445.836 365.96 446.02 365.764 446.262C365.569 446.501 365.463 446.789 365.446 447.127H364.253C364.273 446.594 364.433 446.126 364.735 445.725C365.037 445.321 365.431 445.006 365.918 444.781C366.409 444.555 366.947 444.443 367.534 444.443C368.164 444.443 368.704 444.57 369.155 444.825C369.606 445.077 369.952 445.41 370.194 445.825C370.436 446.239 370.557 446.686 370.557 447.167C370.557 447.74 370.406 448.229 370.104 448.634C369.806 449.038 369.4 449.318 368.886 449.474V449.553C369.529 449.66 370.031 449.933 370.393 450.374C370.754 450.811 370.935 451.353 370.935 451.999C370.935 452.553 370.784 453.05 370.482 453.491C370.184 453.928 369.776 454.273 369.259 454.525C368.742 454.777 368.154 454.903 367.494 454.903ZM377.681 457.627C377.482 457.627 377.305 457.611 377.149 457.578C376.993 457.548 376.886 457.518 376.826 457.488L377.124 456.454C377.409 456.527 377.661 456.553 377.88 456.534C378.099 456.514 378.293 456.416 378.462 456.24C378.634 456.068 378.791 455.788 378.934 455.4L379.153 454.803L376.329 447.127H377.602L379.71 453.213H379.789L381.897 447.127H383.17L379.928 455.877C379.782 456.272 379.602 456.598 379.386 456.857C379.171 457.119 378.921 457.312 378.636 457.438C378.354 457.564 378.036 457.627 377.681 457.627ZM387.647 454.923C386.911 454.923 386.276 454.76 385.743 454.436C385.212 454.107 384.803 453.65 384.515 453.063C384.23 452.473 384.087 451.787 384.087 451.005C384.087 450.223 384.23 449.534 384.515 448.937C384.803 448.337 385.204 447.87 385.718 447.535C386.235 447.197 386.838 447.028 387.527 447.028C387.925 447.028 388.318 447.094 388.706 447.227C389.093 447.359 389.446 447.575 389.765 447.873C390.083 448.168 390.336 448.559 390.525 449.046C390.714 449.534 390.809 450.133 390.809 450.846V451.343H384.922V450.329H389.615C389.615 449.898 389.529 449.514 389.357 449.176C389.188 448.838 388.946 448.571 388.631 448.375C388.319 448.18 387.952 448.082 387.527 448.082C387.06 448.082 386.656 448.198 386.314 448.43C385.976 448.659 385.716 448.957 385.534 449.325C385.351 449.693 385.26 450.087 385.26 450.508V451.184C385.26 451.761 385.36 452.25 385.559 452.651C385.761 453.048 386.041 453.352 386.399 453.561C386.757 453.766 387.173 453.869 387.647 453.869C387.955 453.869 388.233 453.826 388.482 453.74C388.734 453.65 388.951 453.517 389.133 453.342C389.315 453.163 389.456 452.941 389.556 452.676L390.689 452.994C390.57 453.378 390.369 453.716 390.088 454.008C389.806 454.296 389.458 454.522 389.044 454.684C388.629 454.843 388.164 454.923 387.647 454.923ZM394.841 454.943C394.357 454.943 393.917 454.852 393.523 454.669C393.129 454.484 392.815 454.217 392.583 453.869C392.351 453.517 392.235 453.093 392.235 452.596C392.235 452.159 392.322 451.804 392.494 451.532C392.666 451.257 392.897 451.042 393.185 450.886C393.473 450.73 393.792 450.614 394.14 450.538C394.491 450.458 394.844 450.395 395.199 450.349C395.663 450.289 396.039 450.244 396.327 450.215C396.619 450.182 396.831 450.127 396.963 450.051C397.099 449.974 397.167 449.842 397.167 449.653V449.613C397.167 449.123 397.033 448.741 396.765 448.47C396.499 448.198 396.097 448.062 395.556 448.062C394.996 448.062 394.557 448.185 394.239 448.43C393.921 448.675 393.697 448.937 393.568 449.215L392.454 448.818C392.653 448.354 392.918 447.992 393.25 447.734C393.584 447.472 393.949 447.29 394.343 447.187C394.741 447.081 395.132 447.028 395.517 447.028C395.762 447.028 396.044 447.058 396.362 447.117C396.683 447.174 396.993 447.291 397.292 447.47C397.593 447.649 397.843 447.919 398.042 448.281C398.241 448.642 398.341 449.126 398.341 449.732V454.764H397.167V453.73H397.108C397.028 453.895 396.895 454.073 396.71 454.262C396.524 454.45 396.277 454.611 395.969 454.744C395.661 454.876 395.285 454.943 394.841 454.943ZM395.02 453.889C395.484 453.889 395.875 453.798 396.193 453.615C396.514 453.433 396.756 453.198 396.919 452.909C397.084 452.621 397.167 452.318 397.167 451.999V450.926C397.118 450.985 397.008 451.04 396.839 451.09C396.673 451.136 396.481 451.177 396.262 451.214C396.047 451.247 395.837 451.277 395.631 451.303C395.429 451.327 395.265 451.347 395.139 451.363C394.834 451.403 394.549 451.468 394.284 451.557C394.022 451.643 393.81 451.774 393.647 451.95C393.488 452.122 393.409 452.357 393.409 452.656C393.409 453.063 393.56 453.372 393.861 453.58C394.166 453.786 394.552 453.889 395.02 453.889ZM400.482 454.764V447.127H401.616V448.281H401.695C401.834 447.903 402.086 447.596 402.451 447.361C402.815 447.126 403.226 447.008 403.684 447.008C403.77 447.008 403.878 447.01 404.007 447.013C404.136 447.016 404.234 447.021 404.3 447.028V448.221C404.26 448.211 404.169 448.196 404.027 448.176C403.888 448.153 403.74 448.142 403.584 448.142C403.213 448.142 402.882 448.219 402.59 448.375C402.302 448.528 402.073 448.74 401.904 449.012C401.738 449.28 401.655 449.587 401.655 449.931V454.764H400.482ZM411.1 448.838L410.046 449.136C409.98 448.96 409.882 448.789 409.753 448.624C409.627 448.455 409.455 448.316 409.236 448.206C409.017 448.097 408.737 448.042 408.396 448.042C407.928 448.042 407.539 448.15 407.227 448.365C406.919 448.577 406.765 448.847 406.765 449.176C406.765 449.467 406.871 449.698 407.083 449.867C407.295 450.036 407.627 450.177 408.077 450.289L409.211 450.568C409.894 450.733 410.402 450.987 410.737 451.328C411.072 451.666 411.239 452.102 411.239 452.636C411.239 453.073 411.113 453.464 410.862 453.809C410.613 454.154 410.265 454.426 409.817 454.624C409.37 454.823 408.85 454.923 408.256 454.923C407.478 454.923 406.833 454.754 406.322 454.416C405.812 454.078 405.489 453.584 405.353 452.934L406.467 452.656C406.573 453.067 406.773 453.375 407.068 453.58C407.366 453.786 407.756 453.889 408.237 453.889C408.783 453.889 409.218 453.773 409.539 453.541C409.864 453.305 410.026 453.024 410.026 452.695C410.026 452.43 409.933 452.208 409.748 452.029C409.562 451.847 409.277 451.711 408.893 451.622L407.62 451.323C406.921 451.158 406.407 450.901 406.079 450.553C405.754 450.201 405.592 449.762 405.592 449.235C405.592 448.804 405.713 448.423 405.955 448.092C406.2 447.76 406.533 447.5 406.954 447.311C407.378 447.122 407.859 447.028 408.396 447.028C409.151 447.028 409.745 447.194 410.175 447.525C410.61 447.856 410.918 448.294 411.1 448.838Z" fill="white"/>
<path d="M482.815 451.676V450.661L487.29 443.582H488.026V445.153H487.528L484.148 450.502V450.582H490.173V451.676H482.815ZM487.608 453.764V451.367V450.895V443.582H488.781V453.764H487.608ZM496.749 456.627C496.551 456.627 496.373 456.611 496.218 456.578C496.062 456.548 495.954 456.518 495.894 456.488L496.193 455.454C496.478 455.527 496.73 455.553 496.948 455.534C497.167 455.514 497.361 455.416 497.53 455.24C497.702 455.068 497.86 454.788 498.002 454.4L498.221 453.803L495.397 446.127H496.67L498.778 452.213H498.857L500.965 446.127H502.238L498.997 454.877C498.851 455.272 498.67 455.598 498.455 455.857C498.239 456.119 497.989 456.312 497.704 456.438C497.422 456.564 497.104 456.627 496.749 456.627ZM506.715 453.923C505.979 453.923 505.345 453.76 504.811 453.436C504.281 453.107 503.871 452.65 503.583 452.063C503.298 451.473 503.155 450.787 503.155 450.005C503.155 449.223 503.298 448.534 503.583 447.937C503.871 447.337 504.272 446.87 504.786 446.535C505.303 446.197 505.906 446.028 506.596 446.028C506.993 446.028 507.386 446.094 507.774 446.227C508.162 446.359 508.515 446.575 508.833 446.873C509.151 447.168 509.405 447.559 509.594 448.046C509.782 448.534 509.877 449.133 509.877 449.846V450.343H503.991V449.329H508.684C508.684 448.898 508.598 448.514 508.425 448.176C508.256 447.838 508.014 447.571 507.699 447.375C507.388 447.18 507.02 447.082 506.596 447.082C506.128 447.082 505.724 447.198 505.383 447.43C505.045 447.659 504.784 447.957 504.602 448.325C504.42 448.693 504.329 449.087 504.329 449.508V450.184C504.329 450.761 504.428 451.25 504.627 451.651C504.829 452.048 505.109 452.352 505.467 452.561C505.825 452.766 506.241 452.869 506.715 452.869C507.023 452.869 507.302 452.826 507.55 452.74C507.802 452.65 508.019 452.517 508.202 452.342C508.384 452.163 508.525 451.941 508.624 451.676L509.758 451.994C509.638 452.378 509.438 452.716 509.156 453.008C508.874 453.296 508.526 453.522 508.112 453.684C507.698 453.843 507.232 453.923 506.715 453.923ZM513.909 453.943C513.425 453.943 512.986 453.852 512.591 453.669C512.197 453.484 511.884 453.217 511.652 452.869C511.42 452.517 511.304 452.093 511.304 451.596C511.304 451.159 511.39 450.804 511.562 450.532C511.735 450.257 511.965 450.042 512.253 449.886C512.542 449.73 512.86 449.614 513.208 449.538C513.559 449.458 513.912 449.395 514.267 449.349C514.731 449.289 515.107 449.244 515.395 449.215C515.687 449.182 515.899 449.127 516.032 449.051C516.168 448.974 516.236 448.842 516.236 448.653V448.613C516.236 448.123 516.101 447.741 515.833 447.47C515.568 447.198 515.165 447.062 514.625 447.062C514.065 447.062 513.626 447.185 513.307 447.43C512.989 447.675 512.765 447.937 512.636 448.215L511.523 447.818C511.721 447.354 511.987 446.992 512.318 446.734C512.653 446.472 513.017 446.29 513.412 446.187C513.809 446.081 514.201 446.028 514.585 446.028C514.83 446.028 515.112 446.058 515.43 446.117C515.752 446.174 516.062 446.291 516.36 446.47C516.662 446.649 516.912 446.919 517.111 447.281C517.309 447.642 517.409 448.126 517.409 448.732V453.764H516.236V452.73H516.176C516.096 452.895 515.964 453.073 515.778 453.262C515.593 453.45 515.346 453.611 515.037 453.744C514.729 453.876 514.353 453.943 513.909 453.943ZM514.088 452.889C514.552 452.889 514.943 452.798 515.261 452.615C515.583 452.433 515.825 452.198 515.987 451.909C516.153 451.621 516.236 451.318 516.236 450.999V449.926C516.186 449.985 516.077 450.04 515.907 450.09C515.742 450.136 515.55 450.177 515.331 450.214C515.115 450.247 514.905 450.277 514.699 450.303C514.497 450.327 514.333 450.347 514.207 450.363C513.902 450.403 513.617 450.468 513.352 450.557C513.09 450.643 512.878 450.774 512.716 450.95C512.557 451.122 512.477 451.357 512.477 451.656C512.477 452.063 512.628 452.372 512.93 452.58C513.234 452.786 513.621 452.889 514.088 452.889ZM519.55 453.764V446.127H520.684V447.281H520.763C520.903 446.903 521.155 446.596 521.519 446.361C521.884 446.126 522.295 446.008 522.752 446.008C522.838 446.008 522.946 446.01 523.075 446.013C523.205 446.016 523.302 446.021 523.369 446.028V447.221C523.329 447.211 523.238 447.196 523.095 447.176C522.956 447.153 522.808 447.142 522.653 447.142C522.281 447.142 521.95 447.219 521.658 447.375C521.37 447.528 521.141 447.74 520.972 448.012C520.807 448.28 520.724 448.587 520.724 448.931V453.764H519.55ZM530.169 447.838L529.115 448.136C529.048 447.96 528.95 447.789 528.821 447.624C528.695 447.455 528.523 447.316 528.304 447.206C528.085 447.097 527.805 447.042 527.464 447.042C526.997 447.042 526.607 447.15 526.296 447.365C525.987 447.577 525.833 447.847 525.833 448.176C525.833 448.467 525.939 448.698 526.151 448.867C526.364 449.036 526.695 449.177 527.146 449.289L528.279 449.568C528.962 449.733 529.471 449.987 529.806 450.328C530.14 450.666 530.308 451.102 530.308 451.636C530.308 452.073 530.182 452.464 529.93 452.809C529.681 453.154 529.333 453.426 528.886 453.624C528.438 453.823 527.918 453.923 527.325 453.923C526.546 453.923 525.901 453.754 525.391 453.416C524.88 453.078 524.557 452.584 524.421 451.934L525.535 451.656C525.641 452.067 525.842 452.375 526.137 452.58C526.435 452.786 526.824 452.889 527.305 452.889C527.852 452.889 528.286 452.773 528.607 452.541C528.932 452.305 529.095 452.024 529.095 451.695C529.095 451.43 529.002 451.208 528.816 451.029C528.631 450.847 528.346 450.711 527.961 450.622L526.688 450.323C525.989 450.158 525.475 449.901 525.147 449.553C524.822 449.201 524.66 448.762 524.66 448.235C524.66 447.804 524.781 447.423 525.023 447.092C525.268 446.76 525.601 446.5 526.022 446.311C526.446 446.122 526.927 446.028 527.464 446.028C528.22 446.028 528.813 446.194 529.244 446.525C529.678 446.856 529.986 447.294 530.169 447.838Z" fill="white"/>
<path d="M168.634 444.582V454.764H167.401V445.874H167.341L164.855 447.525V446.272L167.401 444.582H168.634ZM176.275 457.627C176.076 457.627 175.899 457.611 175.743 457.578C175.587 457.548 175.479 457.518 175.42 457.488L175.718 456.454C176.003 456.527 176.255 456.553 176.474 456.534C176.692 456.514 176.886 456.416 177.055 456.24C177.228 456.068 177.385 455.788 177.528 455.4L177.746 454.803L174.923 447.127H176.195L178.303 453.213H178.383L180.491 447.127H181.763L178.522 455.877C178.376 456.272 178.196 456.598 177.98 456.857C177.765 457.119 177.514 457.312 177.229 457.438C176.948 457.564 176.629 457.627 176.275 457.627ZM186.24 454.923C185.505 454.923 184.87 454.76 184.336 454.436C183.806 454.107 183.397 453.65 183.108 453.063C182.823 452.473 182.681 451.787 182.681 451.005C182.681 450.223 182.823 449.534 183.108 448.937C183.397 448.337 183.798 447.87 184.311 447.535C184.828 447.197 185.432 447.028 186.121 447.028C186.519 447.028 186.912 447.094 187.299 447.227C187.687 447.359 188.04 447.575 188.358 447.873C188.676 448.168 188.93 448.559 189.119 449.046C189.308 449.534 189.402 450.133 189.402 450.846V451.343H183.516V450.329H188.209C188.209 449.898 188.123 449.514 187.951 449.176C187.782 448.838 187.54 448.571 187.225 448.375C186.913 448.18 186.545 448.082 186.121 448.082C185.654 448.082 185.249 448.198 184.908 448.43C184.57 448.659 184.31 448.957 184.127 449.325C183.945 449.693 183.854 450.087 183.854 450.508V451.184C183.854 451.761 183.953 452.25 184.152 452.651C184.355 453.048 184.635 453.352 184.993 453.561C185.35 453.766 185.766 453.869 186.24 453.869C186.549 453.869 186.827 453.826 187.076 453.74C187.328 453.65 187.545 453.517 187.727 453.342C187.909 453.163 188.05 452.941 188.15 452.676L189.283 452.994C189.164 453.378 188.963 453.716 188.681 454.008C188.4 454.296 188.052 454.522 187.637 454.684C187.223 454.843 186.757 454.923 186.24 454.923ZM193.434 454.943C192.95 454.943 192.511 454.852 192.117 454.669C191.722 454.484 191.409 454.217 191.177 453.869C190.945 453.517 190.829 453.093 190.829 452.596C190.829 452.159 190.915 451.804 191.088 451.532C191.26 451.257 191.49 451.042 191.779 450.886C192.067 450.73 192.385 450.614 192.733 450.538C193.085 450.458 193.438 450.395 193.792 450.349C194.256 450.289 194.632 450.244 194.921 450.215C195.212 450.182 195.425 450.127 195.557 450.051C195.693 449.974 195.761 449.842 195.761 449.653V449.613C195.761 449.123 195.627 448.741 195.358 448.47C195.093 448.198 194.69 448.062 194.15 448.062C193.59 448.062 193.151 448.185 192.833 448.43C192.515 448.675 192.291 448.937 192.162 449.215L191.048 448.818C191.247 448.354 191.512 447.992 191.843 447.734C192.178 447.472 192.543 447.29 192.937 447.187C193.335 447.081 193.726 447.028 194.11 447.028C194.356 447.028 194.637 447.058 194.956 447.117C195.277 447.174 195.587 447.291 195.885 447.47C196.187 447.649 196.437 447.919 196.636 448.281C196.835 448.642 196.934 449.126 196.934 449.732V454.764H195.761V453.73H195.701C195.622 453.895 195.489 454.073 195.304 454.262C195.118 454.45 194.871 454.611 194.563 454.744C194.255 454.876 193.878 454.943 193.434 454.943ZM193.613 453.889C194.077 453.889 194.468 453.798 194.787 453.615C195.108 453.433 195.35 453.198 195.512 452.909C195.678 452.621 195.761 452.318 195.761 451.999V450.926C195.711 450.985 195.602 451.04 195.433 451.09C195.267 451.136 195.075 451.177 194.856 451.214C194.641 451.247 194.43 451.277 194.225 451.303C194.023 451.327 193.859 451.347 193.733 451.363C193.428 451.403 193.143 451.468 192.877 451.557C192.616 451.643 192.404 451.774 192.241 451.95C192.082 452.122 192.002 452.357 192.002 452.656C192.002 453.063 192.153 453.372 192.455 453.58C192.76 453.786 193.146 453.889 193.613 453.889ZM199.076 454.764V447.127H200.209V448.281H200.289C200.428 447.903 200.68 447.596 201.045 447.361C201.409 447.126 201.82 447.008 202.278 447.008C202.364 447.008 202.471 447.01 202.601 447.013C202.73 447.016 202.828 447.021 202.894 447.028V448.221C202.854 448.211 202.763 448.196 202.621 448.176C202.481 448.153 202.334 448.142 202.178 448.142C201.807 448.142 201.475 448.219 201.184 448.375C200.895 448.528 200.667 448.74 200.498 449.012C200.332 449.28 200.249 449.587 200.249 449.931V454.764H199.076Z" fill="white"/>
<path d="M97.6335 444.582V454.764H96.4006V445.874H96.3409L93.8551 447.525V446.272L96.4006 444.582H97.6335ZM104.181 444.105L100.9 456.295H99.826L103.107 444.105H104.181ZM105.552 454.764V453.869L108.913 450.19C109.307 449.759 109.632 449.384 109.887 449.066C110.142 448.745 110.331 448.443 110.454 448.161C110.58 447.876 110.643 447.578 110.643 447.267C110.643 446.909 110.557 446.599 110.384 446.337C110.215 446.075 109.983 445.873 109.688 445.73C109.393 445.588 109.062 445.517 108.694 445.517C108.303 445.517 107.962 445.598 107.67 445.76C107.382 445.919 107.158 446.143 106.999 446.431C106.843 446.72 106.765 447.058 106.765 447.445H105.592C105.592 446.849 105.729 446.325 106.004 445.874C106.28 445.424 106.654 445.072 107.128 444.82C107.605 444.569 108.141 444.443 108.734 444.443C109.33 444.443 109.859 444.569 110.32 444.82C110.78 445.072 111.142 445.412 111.404 445.84C111.665 446.267 111.796 446.743 111.796 447.267C111.796 447.641 111.728 448.007 111.593 448.365C111.46 448.72 111.228 449.116 110.896 449.553C110.568 449.988 110.113 450.518 109.529 451.144L107.242 453.59V453.67H111.975V454.764H105.552ZM118.742 457.627C118.543 457.627 118.365 457.611 118.21 457.578C118.054 457.548 117.946 457.518 117.887 457.488L118.185 456.454C118.47 456.527 118.722 456.553 118.941 456.534C119.159 456.514 119.353 456.416 119.522 456.24C119.695 456.068 119.852 455.788 119.994 455.4L120.213 454.803L117.389 447.127H118.662L120.77 453.213H120.85L122.958 447.127H124.23L120.989 455.877C120.843 456.272 120.662 456.598 120.447 456.857C120.231 457.119 119.981 457.312 119.696 457.438C119.414 457.564 119.096 457.627 118.742 457.627ZM128.707 454.923C127.971 454.923 127.337 454.76 126.803 454.436C126.273 454.107 125.863 453.65 125.575 453.063C125.29 452.473 125.148 451.787 125.148 451.005C125.148 450.223 125.29 449.534 125.575 448.937C125.863 448.337 126.265 447.87 126.778 447.535C127.295 447.197 127.898 447.028 128.588 447.028C128.986 447.028 129.378 447.094 129.766 447.227C130.154 447.359 130.507 447.575 130.825 447.873C131.143 448.168 131.397 448.559 131.586 449.046C131.775 449.534 131.869 450.133 131.869 450.846V451.343H125.983V450.329H130.676C130.676 449.898 130.59 449.514 130.417 449.176C130.248 448.838 130.006 448.571 129.692 448.375C129.38 448.18 129.012 448.082 128.588 448.082C128.121 448.082 127.716 448.198 127.375 448.43C127.037 448.659 126.777 448.957 126.594 449.325C126.412 449.693 126.321 450.087 126.321 450.508V451.184C126.321 451.761 126.42 452.25 126.619 452.651C126.821 453.048 127.101 453.352 127.459 453.561C127.817 453.766 128.233 453.869 128.707 453.869C129.015 453.869 129.294 453.826 129.542 453.74C129.794 453.65 130.011 453.517 130.194 453.342C130.376 453.163 130.517 452.941 130.616 452.676L131.75 452.994C131.631 453.378 131.43 453.716 131.148 454.008C130.867 454.296 130.519 454.522 130.104 454.684C129.69 454.843 129.224 454.923 128.707 454.923ZM135.901 454.943C135.417 454.943 134.978 454.852 134.584 454.669C134.189 454.484 133.876 454.217 133.644 453.869C133.412 453.517 133.296 453.093 133.296 452.596C133.296 452.159 133.382 451.804 133.555 451.532C133.727 451.257 133.957 451.042 134.246 450.886C134.534 450.73 134.852 450.614 135.2 450.538C135.551 450.458 135.904 450.395 136.259 450.349C136.723 450.289 137.099 450.244 137.388 450.215C137.679 450.182 137.891 450.127 138.024 450.051C138.16 449.974 138.228 449.842 138.228 449.653V449.613C138.228 449.123 138.094 448.741 137.825 448.47C137.56 448.198 137.157 448.062 136.617 448.062C136.057 448.062 135.618 448.185 135.3 448.43C134.981 448.675 134.758 448.937 134.628 449.215L133.515 448.818C133.714 448.354 133.979 447.992 134.31 447.734C134.645 447.472 135.01 447.29 135.404 447.187C135.802 447.081 136.193 447.028 136.577 447.028C136.823 447.028 137.104 447.058 137.422 447.117C137.744 447.174 138.054 447.291 138.352 447.47C138.654 447.649 138.904 447.919 139.103 448.281C139.302 448.642 139.401 449.126 139.401 449.732V454.764H138.228V453.73H138.168C138.089 453.895 137.956 454.073 137.77 454.262C137.585 454.45 137.338 454.611 137.03 454.744C136.721 454.876 136.345 454.943 135.901 454.943ZM136.08 453.889C136.544 453.889 136.935 453.798 137.253 453.615C137.575 453.433 137.817 453.198 137.979 452.909C138.145 452.621 138.228 452.318 138.228 451.999V450.926C138.178 450.985 138.069 451.04 137.9 451.09C137.734 451.136 137.542 451.177 137.323 451.214C137.108 451.247 136.897 451.277 136.692 451.303C136.489 451.327 136.325 451.347 136.199 451.363C135.894 451.403 135.609 451.468 135.344 451.557C135.082 451.643 134.87 451.774 134.708 451.95C134.549 452.122 134.469 452.357 134.469 452.656C134.469 453.063 134.62 453.372 134.922 453.58C135.227 453.786 135.613 453.889 136.08 453.889ZM141.543 454.764V447.127H142.676V448.281H142.756C142.895 447.903 143.147 447.596 143.511 447.361C143.876 447.126 144.287 447.008 144.744 447.008C144.83 447.008 144.938 447.01 145.067 447.013C145.197 447.016 145.295 447.021 145.361 447.028V448.221C145.321 448.211 145.23 448.196 145.087 448.176C144.948 448.153 144.801 448.142 144.645 448.142C144.274 448.142 143.942 448.219 143.651 448.375C143.362 448.528 143.134 448.74 142.964 449.012C142.799 449.28 142.716 449.587 142.716 449.931V454.764H141.543Z" fill="white"/>
<path d="M69.0078 89.1416L69.0078 426.441" stroke="white" stroke-width="5" stroke-linecap="round"/>
<path d="M69.0078 89.1416L69.0078 426.441" stroke="white" stroke-width="5" stroke-linecap="round"/>
<path d="M70.0577 86.047L78.2729 100.488" stroke="white" stroke-width="5" stroke-linecap="round"/>
<path d="M68.9897 86.047L60.7745 100.488" stroke="white" stroke-width="5" stroke-linecap="round"/>
<path d="M546 429.575L530.983 438.118" stroke="white" stroke-width="5" stroke-linecap="round"/>
<path d="M546 428.464L530.983 419.922" stroke="white" stroke-width="5" stroke-linecap="round"/>
<path d="M541 429.764L69 429.764" stroke="white" stroke-width="5" stroke-linecap="round"/>
<path d="M4.63352 252.582V262.764H3.40057V253.874H3.34091L0.855114 255.525V254.272L3.40057 252.582H4.63352ZM11.1811 252.105L7.89986 264.295H6.82599L10.1072 252.105H11.1811ZM12.552 262.764V261.869L15.9128 258.19C16.3072 257.759 16.632 257.384 16.8873 257.066C17.1425 256.745 17.3314 256.443 17.454 256.161C17.58 255.876 17.6429 255.578 17.6429 255.267C17.6429 254.909 17.5568 254.599 17.3844 254.337C17.2154 254.075 16.9834 253.873 16.6884 253.73C16.3934 253.588 16.062 253.517 15.6941 253.517C15.303 253.517 14.9616 253.598 14.6699 253.76C14.3816 253.919 14.1578 254.143 13.9988 254.431C13.843 254.72 13.7651 255.058 13.7651 255.445H12.5918C12.5918 254.849 12.7293 254.325 13.0044 253.874C13.2795 253.424 13.6541 253.072 14.128 252.82C14.6053 252.569 15.1406 252.443 15.7338 252.443C16.3304 252.443 16.8591 252.569 17.3198 252.82C17.7805 253.072 18.1417 253.412 18.4036 253.84C18.6654 254.267 18.7963 254.743 18.7963 255.267C18.7963 255.641 18.7284 256.007 18.5925 256.365C18.4599 256.72 18.2279 257.116 17.8965 257.553C17.5684 257.988 17.1126 258.518 16.5293 259.144L14.2424 261.59V261.67H18.9753V262.764H12.552ZM25.5627 252.582L28.5854 261.153H28.7047L31.7275 252.582H33.0201L29.2814 262.764H28.0087L24.2701 252.582H25.5627ZM34.606 262.764V252.582H38.0463C38.8451 252.582 39.498 252.726 40.0051 253.014C40.5156 253.299 40.8934 253.686 41.1387 254.173C41.3839 254.66 41.5066 255.204 41.5066 255.803C41.5066 256.403 41.3839 256.949 41.1387 257.439C40.8967 257.93 40.5222 258.321 40.0151 258.612C39.508 258.901 38.8584 259.045 38.0662 259.045H35.6003V257.951H38.0265C38.5733 257.951 39.0125 257.857 39.3439 257.668C39.6754 257.479 39.9157 257.224 40.0648 256.902C40.2173 256.577 40.2935 256.211 40.2935 255.803C40.2935 255.396 40.2173 255.031 40.0648 254.71C39.9157 254.388 39.6737 254.136 39.339 253.954C39.0042 253.768 38.5601 253.676 38.0066 253.676H35.839V262.764H34.606Z" fill="white"/>
<path d="M4.63352 338.582V348.764H3.40057V339.874H3.34091L0.855114 341.525V340.272L3.40057 338.582H4.63352ZM11.1811 338.105L7.89986 350.295H6.82599L10.1072 338.105H11.1811ZM12.3134 346.676V345.661L16.7878 338.582H17.5236V340.153H17.0265L13.6458 345.502V345.582H19.6713V346.676H12.3134ZM17.106 348.764V346.367V345.895V338.582H18.2793V348.764H17.106ZM26.0685 338.582L29.0913 347.153H29.2106L32.2333 338.582H33.5259L29.7873 348.764H28.5146L24.7759 338.582H26.0685ZM35.1119 348.764V338.582H38.5522C39.351 338.582 40.0039 338.726 40.511 339.014C41.0214 339.299 41.3993 339.686 41.6445 340.173C41.8898 340.66 42.0124 341.204 42.0124 341.803C42.0124 342.403 41.8898 342.949 41.6445 343.439C41.4026 343.93 41.0281 344.321 40.521 344.612C40.0138 344.901 39.3642 345.045 38.5721 345.045H36.1062V343.951H38.5323C39.0792 343.951 39.5183 343.857 39.8498 343.668C40.1812 343.479 40.4215 343.224 40.5707 342.902C40.7231 342.577 40.7994 342.211 40.7994 341.803C40.7994 341.396 40.7231 341.031 40.5707 340.71C40.4215 340.388 40.1796 340.136 39.8448 339.954C39.5101 339.768 39.0659 339.676 38.5124 339.676H36.3448V348.764H35.1119Z" fill="white"/>
<path d="M4.63352 399.582V409.764H3.40057V400.874H3.34091L0.855114 402.525V401.272L3.40057 399.582H4.63352ZM11.1811 399.105L7.89986 411.295H6.82599L10.1072 399.105H11.1811ZM16.1316 399.582V409.764H14.8986V400.874H14.839L12.3532 402.525V401.272L14.8986 399.582H16.1316ZM22.4405 409.903C22.0229 409.896 21.6053 409.817 21.1877 409.664C20.7701 409.512 20.3889 409.255 20.0442 408.894C19.6995 408.529 19.4228 408.037 19.214 407.417C19.0051 406.794 18.9007 406.012 18.9007 405.07C18.9007 404.169 18.9853 403.37 19.1543 402.674C19.3233 401.975 19.5686 401.387 19.8901 400.909C20.2116 400.429 20.5994 400.064 21.0534 399.816C21.5108 399.567 22.0262 399.443 22.5996 399.443C23.1697 399.443 23.6768 399.557 24.1209 399.786C24.5684 400.011 24.9329 400.326 25.2147 400.73C25.4964 401.135 25.6787 401.6 25.7615 402.127H24.5485C24.4358 401.67 24.217 401.29 23.8922 400.989C23.5674 400.687 23.1365 400.536 22.5996 400.536C21.8108 400.536 21.1893 400.879 20.7353 401.566C20.2845 402.252 20.0575 403.214 20.0542 404.454H20.1337C20.3193 404.172 20.5397 403.932 20.7949 403.733C21.0534 403.531 21.3385 403.375 21.65 403.266C21.9616 403.156 22.2914 403.102 22.6394 403.102C23.2227 403.102 23.7563 403.248 24.2402 403.539C24.7241 403.828 25.1119 404.227 25.4036 404.737C25.6953 405.244 25.8411 405.826 25.8411 406.482C25.8411 407.112 25.7002 407.689 25.4185 408.213C25.1368 408.733 24.7407 409.147 24.2303 409.455C23.7232 409.76 23.1266 409.91 22.4405 409.903ZM22.4405 408.809C22.8581 408.809 23.2327 408.705 23.5641 408.496C23.8989 408.287 24.1623 408.007 24.3546 407.656C24.5501 407.304 24.6479 406.913 24.6479 406.482C24.6479 406.061 24.5534 405.679 24.3645 405.334C24.1789 404.986 23.9221 404.709 23.5939 404.504C23.2691 404.298 22.8979 404.195 22.4803 404.195C22.1654 404.195 21.8721 404.258 21.6003 404.384C21.3285 404.507 21.0899 404.676 20.8844 404.892C20.6822 405.107 20.5231 405.354 20.4071 405.632C20.2911 405.907 20.2331 406.197 20.2331 406.502C20.2331 406.907 20.3276 407.285 20.5165 407.636C20.7087 407.987 20.9706 408.271 21.302 408.486C21.6368 408.701 22.0163 408.809 22.4405 408.809ZM32.3303 399.582L35.353 408.153H35.4723L38.495 399.582H39.7876L36.049 409.764H34.7763L31.0376 399.582H32.3303ZM41.3736 409.764V399.582H44.8139C45.6127 399.582 46.2656 399.726 46.7727 400.014C47.2831 400.299 47.661 400.686 47.9062 401.173C48.1515 401.66 48.2741 402.204 48.2741 402.803C48.2741 403.403 48.1515 403.949 47.9062 404.439C47.6643 404.93 47.2898 405.321 46.7827 405.612C46.2756 405.901 45.6259 406.045 44.8338 406.045H42.3679V404.951H44.794C45.3409 404.951 45.7801 404.857 46.1115 404.668C46.4429 404.479 46.6832 404.224 46.8324 403.902C46.9848 403.577 47.0611 403.211 47.0611 402.803C47.0611 402.396 46.9848 402.031 46.8324 401.71C46.6832 401.388 46.4413 401.136 46.1065 400.954C45.7718 400.768 45.3277 400.676 44.7741 400.676H42.6065V409.764H41.3736Z" fill="white"/>
</svg>
